<svg width="18" height="18" viewBox="0 0 18 18" fill="none" xmlns="http://www.w3.org/2000/svg">
<path d="M17.7798 16.7203L13.3031 12.2436C14.5231 10.7515 15.1229 8.84764 14.9785 6.92574C14.8341 5.00384 13.9565 3.21097 12.5273 1.91796C11.0981 0.624952 9.22654 -0.0692619 7.29982 -0.0210881C5.37311 0.0270858 3.53862 0.813961 2.1758 2.17678C0.812985 3.5396 0.0261092 5.37409 -0.0220646 7.3008C-0.0702385 9.22751 0.623975 11.099 1.91698 12.5283C3.20999 13.9575 5.00287 14.8351 6.92476 14.9795C8.84666 15.1239 10.7505 14.524 12.2426 13.3041L16.7193 17.7808C16.8608 17.9174 17.0502 17.993 17.2469 17.9913C17.4435 17.9896 17.6317 17.9107 17.7707 17.7717C17.9098 17.6326 17.9886 17.4445 17.9904 17.2479C17.9921 17.0512 17.9165 16.8618 17.7798 16.7203ZM7.49959 13.5006C6.3129 13.5006 5.15287 13.1487 4.16617 12.4894C3.17948 11.8301 2.41044 10.893 1.95632 9.79667C1.50219 8.70031 1.38337 7.49391 1.61488 6.33003C1.84639 5.16614 2.41784 4.09704 3.25695 3.25793C4.09607 2.41881 5.16516 1.84737 6.32905 1.61586C7.49294 1.38435 8.69934 1.50317 9.79569 1.95729C10.892 2.41142 11.8291 3.18045 12.4884 4.16715C13.1477 5.15384 13.4996 6.31388 13.4996 7.50057C13.4978 9.09132 12.8651 10.6164 11.7403 11.7412C10.6154 12.8661 9.09034 13.4988 7.49959 13.5006Z" fill="#343A40"/>
</svg>
