<svg width="14" height="8" viewBox="0 0 14 8" fill="none" xmlns="http://www.w3.org/2000/svg">
<path d="M4.88 1.6002L0.289999 6.1902C0.103748 6.37756 -0.000793512 6.63101 -0.000793501 6.8952C-0.000793489 7.15938 0.103748 7.41284 0.289999 7.6002C0.382962 7.69393 0.493563 7.76832 0.615422 7.81909C0.737282 7.86986 0.867987 7.896 0.999999 7.896C1.13201 7.896 1.26272 7.86986 1.38458 7.81909C1.50644 7.76832 1.61704 7.69393 1.71 7.6002L6.29 3.0002C6.38296 2.90647 6.49356 2.83207 6.61542 2.78131C6.73728 2.73054 6.86799 2.7044 7 2.7044C7.13201 2.7044 7.26272 2.73054 7.38458 2.78131C7.50644 2.83207 7.61704 2.90647 7.71 3.0002L12.29 7.6002C12.477 7.7885 12.7311 7.89482 12.9965 7.89575C13.2618 7.89669 13.5167 7.79217 13.705 7.6052C13.8933 7.41822 13.9996 7.1641 14.0006 6.89873C14.0015 6.63337 13.897 6.3785 13.71 6.1902L9.12 1.6002C8.5575 1.03839 7.795 0.722835 7 0.722835C6.205 0.722835 5.4425 1.03839 4.88 1.6002Z" fill="#374957"/>
</svg>
