<svg width="57" height="56" viewBox="0 0 57 56" fill="none" xmlns="http://www.w3.org/2000/svg">
<g filter="url(#filter0_d_2452_734)">
<rect width="48" height="48" rx="24" transform="matrix(-1 0 0 1 52.5 2)" fill="white"/>
<path fill-rule="evenodd" clip-rule="evenodd" d="M23.4689 16.469C23.5385 16.3992 23.6213 16.3437 23.7124 16.3059C23.8035 16.2681 23.9012 16.2487 23.9999 16.2487C24.0985 16.2487 24.1962 16.2681 24.2873 16.3059C24.3784 16.3437 24.4612 16.3992 24.5309 16.469L33.5309 25.469C33.6007 25.5387 33.6561 25.6214 33.6939 25.7125C33.7318 25.8037 33.7512 25.9013 33.7512 26C33.7512 26.0987 33.7318 26.1963 33.6939 26.2874C33.6561 26.3786 33.6007 26.4613 33.5309 26.531L24.5309 35.531C24.39 35.6718 24.199 35.7509 23.9999 35.7509C23.8007 35.7509 23.6097 35.6718 23.4689 35.531C23.328 35.3902 23.2489 35.1992 23.2489 35C23.2489 34.8008 23.328 34.6098 23.4689 34.469L31.9394 26L23.4689 17.531C23.399 17.4613 23.3436 17.3786 23.3058 17.2875C23.268 17.1963 23.2485 17.0987 23.2485 17C23.2485 16.9013 23.268 16.8037 23.3058 16.7125C23.3436 16.6214 23.399 16.5387 23.4689 16.469Z" fill="#E8952F"/>
<rect x="-0.5" y="0.5" width="47" height="47" rx="23.5" transform="matrix(-1 0 0 1 51.5 2)" stroke="#E8952F"/>
</g>
<defs>
<filter id="filter0_d_2452_734" x="0.5" y="0" width="56" height="56" filterUnits="userSpaceOnUse" color-interpolation-filters="sRGB">
<feFlood flood-opacity="0" result="BackgroundImageFix"/>
<feColorMatrix in="SourceAlpha" type="matrix" values="0 0 0 0 0 0 0 0 0 0 0 0 0 0 0 0 0 0 127 0" result="hardAlpha"/>
<feOffset dy="2"/>
<feGaussianBlur stdDeviation="2"/>
<feColorMatrix type="matrix" values="0 0 0 0 0 0 0 0 0 0 0 0 0 0 0 0 0 0 0.15 0"/>
<feBlend mode="normal" in2="BackgroundImageFix" result="effect1_dropShadow_2452_734"/>
<feBlend mode="normal" in="SourceGraphic" in2="effect1_dropShadow_2452_734" result="shape"/>
</filter>
</defs>
</svg>
