<svg width="16" height="16" viewBox="0 0 16 16" fill="none" xmlns="http://www.w3.org/2000/svg">
<path d="M1.66699 6.33331H14.3337V13.3333C14.3337 13.5101 14.2634 13.6797 14.1384 13.8047C14.0134 13.9297 13.8438 14 13.667 14H2.33366C2.15685 14 1.98728 13.9297 1.86225 13.8047C1.73723 13.6797 1.66699 13.5101 1.66699 13.3333V6.33331Z" stroke="#616971" stroke-linejoin="round"/>
<path d="M1.66699 2.99998C1.66699 2.82317 1.73723 2.6536 1.86225 2.52858C1.98728 2.40355 2.15685 2.33331 2.33366 2.33331H13.667C13.8438 2.33331 14.0134 2.40355 14.1384 2.52858C14.2634 2.6536 14.3337 2.82317 14.3337 2.99998V6.33331H1.66699V2.99998Z" stroke="#616971" stroke-linejoin="round"/>
<path d="M5.33398 1.33331V3.99998" stroke="#616971" stroke-linecap="round" stroke-linejoin="round"/>
<path d="M10.667 1.33331V3.99998" stroke="#616971" stroke-linecap="round" stroke-linejoin="round"/>
<path d="M9.33398 11.3333H11.334" stroke="#616971" stroke-linecap="round" stroke-linejoin="round"/>
<path d="M4.66699 11.3333H6.66699" stroke="#616971" stroke-linecap="round" stroke-linejoin="round"/>
<path d="M9.33398 8.66663H11.334" stroke="#616971" stroke-linecap="round" stroke-linejoin="round"/>
<path d="M4.66699 8.66663H6.66699" stroke="#616971" stroke-linecap="round" stroke-linejoin="round"/>
</svg>
