<svg width="28" height="24" viewBox="0 0 28 24" fill="none" xmlns="http://www.w3.org/2000/svg">
<path d="M14.8247 22.5C14.4398 23.1667 13.4775 23.1667 13.0926 22.5L11.5538 19.8347C11.1689 19.1681 11.6501 18.3347 12.4199 18.3347L15.4974 18.3347C16.2672 18.3347 16.7484 19.1681 16.3635 19.8347L14.8247 22.5Z" fill="white"/>
<path fill-rule="evenodd" clip-rule="evenodd" d="M6 0C2.68629 0 0 2.68629 0 6V13.7053C0 17.019 2.68629 19.7053 6 19.7053H21.7516C25.0653 19.7053 27.7516 17.019 27.7516 13.7053V6C27.7516 2.68629 25.0653 0 21.7516 0H6ZM22.8961 8.40326C22.5781 7.99831 22.1156 7.76185 21.4896 7.76185C20.1214 7.76185 19.1193 8.90616 19.1193 10.2675C19.1193 11.6289 20.1214 12.7732 21.4892 12.7732C22.1156 12.7732 22.5781 12.5363 22.8961 12.1318V12.5857C22.8961 13.2858 22.4816 13.6413 21.8072 13.6413H21.7592V14.9432C23.0406 14.9432 24.3026 14.2422 24.3026 12.5853V7.89993H22.8961V8.40326ZM6.37062 8.36356V6.25566V6.25524H4.92578V12.8319H6.37062V12.3687C6.68865 12.7436 7.16044 12.9704 7.80577 12.9704C9.06821 12.9704 10.1087 11.8358 10.1087 10.3663C10.1087 8.89645 9.06821 7.76185 7.80577 7.76185C7.16044 7.76185 6.68865 7.98902 6.37062 8.36356ZM18.439 10.3663C18.439 8.89645 17.3025 7.76185 15.8863 7.76185H15.8859C14.4701 7.76185 13.3332 8.89645 13.3332 10.3663C13.3332 11.8358 14.4701 12.9704 15.8863 12.9704C17.3025 12.9704 18.439 11.8358 18.439 10.3663ZM12.4773 8.45097C12.4773 6.91903 11.4141 6.19275 10.2418 6.07578V7.40884C10.7384 7.50723 11.0324 7.85643 11.0324 8.45097V12.8323H12.4773V8.45097ZM6.27668 10.3663C6.27668 9.56573 6.79817 9.06366 7.51722 9.06366C8.23669 9.06366 8.75776 9.56573 8.75776 10.3663C8.75776 11.1665 8.23669 11.6686 7.51722 11.6686C6.79817 11.6686 6.27668 11.1665 6.27668 10.3663ZM14.6875 10.3663C14.6875 9.60837 15.2086 9.10673 15.8863 9.10673C16.5641 9.10673 17.0852 9.60837 17.0852 10.3663C17.0852 11.1238 16.5641 11.6259 15.8863 11.6259C15.2086 11.6259 14.6875 11.1238 14.6875 10.3663ZM20.4685 10.2675C20.4685 9.5311 20.99 9.02946 21.7301 9.02946C22.4702 9.02946 22.9917 9.5311 22.9917 10.2675C22.9917 11.0039 22.4702 11.5056 21.7301 11.5056C20.99 11.5056 20.4685 11.0039 20.4685 10.2675Z" fill="white"/>
</svg>
