<svg width="22" height="22" viewBox="0 0 22 22" fill="none" xmlns="http://www.w3.org/2000/svg">
<path d="M11 0C4.93462 0 0 4.93462 0 11C0 17.0649 4.93462 22 11 22C17.0649 22 22 17.0649 22 11C22 4.93462 17.0658 0 11 0ZM13.7356 11.3873H11.946V17.7659H9.29413C9.29413 17.7659 9.29413 14.2806 9.29413 11.3873H8.03355V9.13284H9.29413V7.67465C9.29413 6.63031 9.79038 4.99843 11.9704 4.99843L13.9354 5.00596V7.19435C13.9354 7.19435 12.7413 7.19435 12.5091 7.19435C12.277 7.19435 11.9469 7.31044 11.9469 7.80847V9.13329H13.9673L13.7356 11.3873Z" fill="white"/>
</svg>
