<svg width="24" height="22" viewBox="0 0 24 22" fill="none" xmlns="http://www.w3.org/2000/svg">
<path d="M9.46098 8.30529L8.76904 10.2561H10.1519L9.46098 8.30529Z" fill="white"/>
<path d="M11.999 0C5.37254 0 0 4.20764 0 9.3982C0 12.7539 2.24581 15.6987 5.62452 17.3605C4.32563 21.8101 4.29163 21.8301 4.51161 21.9591C4.78759 22.1201 5.14556 21.9541 9.86815 18.6484C10.5601 18.7454 11.272 18.7964 11.999 18.7964C18.6254 18.7964 23.9979 14.5888 23.9979 9.3982C23.9979 4.20764 18.6254 0 11.999 0ZM6.05748 12.022C6.05748 12.3839 5.74651 12.6789 5.36554 12.6789C4.98457 12.6789 4.6736 12.3839 4.6736 12.022V7.93632H3.59369C3.21872 7.93632 2.91475 7.63435 2.91475 7.26338C2.91475 6.89241 3.21772 6.58944 3.59269 6.58944H7.13739C7.51236 6.58944 7.81633 6.89141 7.81633 7.26238C7.81633 7.63335 7.51136 7.93632 7.13739 7.93632H6.05748V12.022ZM11.435 12.6699C10.7151 12.6699 10.8481 12.105 10.5161 11.475H8.40528C8.07631 12.1 8.2053 12.6699 7.48636 12.6699C6.79342 12.6709 6.67143 12.249 6.88241 11.599L8.53827 7.26938C8.65526 6.93941 9.00923 6.60043 9.46019 6.59044C9.91215 6.60043 10.2671 6.93941 10.3831 7.26938C11.476 10.6591 13.0369 12.6709 11.435 12.6699V12.6699ZM15.3737 12.5779H13.1529C11.994 12.5779 12.6989 11.0131 12.4899 7.27738C12.4899 6.89841 12.8069 6.58944 13.1969 6.58944C13.5868 6.58944 13.9038 6.89741 13.9038 7.27738V11.317H15.3747C15.7407 11.317 16.0376 11.6 16.0376 11.947C16.0366 12.2949 15.7397 12.5779 15.3737 12.5779V12.5779ZM20.7922 12.06C20.7672 12.241 20.6702 12.4039 20.5232 12.5139C19.5683 13.2349 18.8624 11.133 17.9305 10.2431L17.6905 10.4821V11.982C17.6905 12.3619 17.3805 12.6699 16.9975 12.6699C16.6156 12.6699 16.3056 12.3619 16.3056 11.982V7.27738C16.3056 6.89841 16.6156 6.58944 16.9975 6.58944C17.3795 6.58944 17.6895 6.89741 17.6895 7.27738V8.75525C18.9664 7.79733 19.6743 6.08548 20.4812 6.88641C21.2732 7.67234 19.6333 8.36028 18.9544 9.3082C20.5582 11.52 20.8632 11.575 20.7922 12.06V12.06Z" fill="white"/>
</svg>
