<svg width="27" height="22" viewBox="0 0 27 22" fill="none" xmlns="http://www.w3.org/2000/svg">
<path d="M21.8245 11.2307C21.363 10.9394 20.8456 10.7035 20.2733 10.5228C20.1527 10.4824 20.0672 10.4524 20.017 10.4323C19.9668 10.4122 19.9063 10.3746 19.8363 10.3193C19.7659 10.264 19.7431 10.2012 19.7685 10.1309C19.7938 10.0607 19.8162 9.96034 19.8363 9.82982C20.2878 8.67511 20.2878 7.78143 19.8363 7.14884C19.374 6.53635 18.6063 6.23 17.5315 6.23C16.4571 6.23 15.2221 6.52633 13.8265 7.11867L13.7359 7.14884C13.676 7.16894 13.6081 7.1863 13.533 7.20149C13.4575 7.21669 13.3846 7.21906 13.3144 7.20909C13.2443 7.19917 13.194 7.16404 13.1639 7.10374C13.1337 7.04344 13.1389 6.94304 13.179 6.80245C13.6307 5.3464 13.5304 4.2972 12.8776 3.65443C12.1347 2.91142 10.8971 2.87629 9.16485 3.54908C7.43304 4.22203 5.71854 5.40681 4.02139 7.10395C2.73616 8.38918 1.74452 9.68453 1.04667 10.9899C0.348767 12.2955 0 13.5252 0 14.6802C0 15.7645 0.326346 16.7662 0.978879 17.6851C1.63173 18.604 2.49259 19.3621 3.56211 19.9595C4.63135 20.5567 5.83893 21.0239 7.1844 21.3603C8.52993 21.6965 9.9107 21.8648 11.3265 21.8648C12.7424 21.8648 14.1004 21.7093 15.4006 21.398C16.7008 21.0866 17.8357 20.6701 18.8044 20.1478C19.7736 19.6259 20.6196 19.0359 21.3425 18.378C22.0657 17.7203 22.6127 17.0328 22.9844 16.3145C23.356 15.5967 23.5419 14.8961 23.5419 14.2136C23.5419 13.571 23.3715 12.9858 23.0297 12.4587C22.6886 11.931 22.2867 11.5219 21.8245 11.2307ZM16.9072 18.1375C15.4362 19.3273 13.581 20.0377 11.3419 20.2686C9.87578 20.4093 8.49754 20.3038 7.20735 19.9524C5.91711 19.6007 4.87018 19.0536 4.06698 18.3106C3.26367 17.5672 2.81683 16.7137 2.72646 15.7496C2.58576 14.2836 3.25111 12.9558 4.72215 11.7659C6.19318 10.5757 8.04838 9.86538 10.2875 9.63447C11.7536 9.49372 13.1317 9.59933 14.4217 9.95079C15.7119 10.3022 16.759 10.8494 17.5624 11.5924C18.3658 12.3357 18.8124 13.1893 18.9027 14.1532C19.0431 15.6194 18.3782 16.9473 16.9072 18.1375Z" fill="white"/>
<path d="M11.779 11.894C10.7147 11.6228 9.6578 11.7185 8.60849 12.1803C7.55908 12.6422 6.79861 13.3398 6.32661 14.2739C5.85466 15.2275 5.82189 16.169 6.22864 17.0978C6.63538 18.0267 7.37581 18.6617 8.45028 19.0034C9.56479 19.3647 10.6896 19.3045 11.8242 18.8223C12.9588 18.3403 13.7519 17.5871 14.2042 16.5631C14.6558 15.5587 14.6433 14.6024 14.1663 13.6936C13.6891 12.7852 12.8935 12.1852 11.779 11.894ZM10.1673 16.7741C9.94637 17.1153 9.63264 17.354 9.22573 17.4894C8.81909 17.6252 8.44479 17.6126 8.10357 17.4519C7.76224 17.2912 7.54637 17.0377 7.456 16.6911C7.36557 16.345 7.43083 16.0013 7.65172 15.6597C7.86248 15.328 8.16382 15.0973 8.55537 14.9669C8.94713 14.8364 9.31357 14.8413 9.65501 14.9819C10.0065 15.1323 10.2326 15.3836 10.333 15.7349C10.4333 16.0863 10.3782 16.4325 10.1673 16.7741ZM11.583 14.9512C11.5128 15.0819 11.4022 15.1749 11.2517 15.2301C11.1011 15.2854 10.9554 15.2877 10.8149 15.2377C10.5138 15.0969 10.4485 14.8713 10.6191 14.56C10.6894 14.4292 10.7973 14.3365 10.9428 14.2811C11.0883 14.2258 11.2314 14.2234 11.372 14.2737C11.5026 14.3236 11.5904 14.4168 11.6357 14.5524C11.6809 14.6876 11.6634 14.8211 11.583 14.9512Z" fill="white"/>
<path d="M21.5232 8.34666C21.6341 8.56258 21.8045 8.71062 22.0356 8.79101C22.2667 8.86129 22.4898 8.84129 22.7058 8.73072C22.9217 8.6204 23.0699 8.44969 23.1503 8.21862C23.3409 7.65646 23.3737 7.06633 23.2478 6.44894C23.1225 5.83149 22.8488 5.28663 22.4274 4.81468C22.0057 4.34268 21.4982 4.0138 20.906 3.82794C20.3135 3.64219 19.716 3.61465 19.1138 3.74517C18.8724 3.79545 18.6868 3.92354 18.5561 4.12933C18.4258 4.33508 18.3857 4.55855 18.4361 4.79949C18.4762 5.04053 18.6015 5.22628 18.8121 5.3568C19.0232 5.48731 19.2491 5.52746 19.4903 5.47739C20.1231 5.34682 20.6598 5.52261 21.1019 6.00453C21.5439 6.48639 21.6641 7.0437 21.4634 7.6764C21.3925 7.90731 21.4129 8.13078 21.5232 8.34666Z" fill="white"/>
<path d="M26.8485 5.71068C26.5922 4.44059 26.0276 3.32344 25.154 2.35955C24.2802 1.38569 23.236 0.710364 22.0206 0.333584C20.8057 -0.0430366 19.581 -0.100698 18.3455 0.160336C18.0643 0.220635 17.8458 0.368667 17.6902 0.604747C17.5345 0.84088 17.4868 1.09933 17.5474 1.38052C17.6075 1.6617 17.7579 1.88006 17.9992 2.03569C18.2399 2.19131 18.5011 2.23906 18.782 2.17876C19.6558 1.99812 20.5246 2.04086 21.388 2.30685C22.2516 2.57295 22.9947 3.05228 23.6174 3.74517C24.2398 4.42804 24.6418 5.22116 24.8226 6.12502C25.0035 7.02862 24.9533 7.89222 24.672 8.71558C24.5918 8.98684 24.6168 9.24788 24.7475 9.49894C24.8778 9.74995 25.0786 9.92056 25.3497 10.011C25.621 10.1012 25.882 10.0813 26.133 9.95074C26.3841 9.82022 26.5548 9.61943 26.6453 9.34827C27.0368 8.19351 27.1045 6.98098 26.8485 5.71068Z" fill="white"/>
</svg>
