<svg width="22" height="22" viewBox="0 0 22 22" fill="none" xmlns="http://www.w3.org/2000/svg">
<path fill-rule="evenodd" clip-rule="evenodd" d="M11 0C17.0754 0 22 4.92465 22 11C22 17.0754 17.0754 22 11 22C4.92465 22 0 17.0754 0 11C0 4.92465 4.92465 0 11 0ZM12.5507 11.1439L10.1217 12.476C10.0164 12.5331 9.92148 12.4566 9.92148 12.3368V9.60223C9.92148 9.48063 10.0195 9.40414 10.1252 9.4643L12.5705 10.8668C12.6788 10.9282 12.6603 11.0846 12.5507 11.1439V11.1439ZM16.3934 9.57301C16.3934 8.27578 15.342 7.22477 14.0452 7.22477H7.9548C6.65801 7.22477 5.60656 8.27578 5.60656 9.57301V12.427C5.60656 13.7242 6.65801 14.7752 7.9548 14.7752H14.0456C15.342 14.7752 16.3934 13.7242 16.3934 12.427V9.57301Z" fill="white"/>
</svg>
