<svg width="16" height="16" viewBox="0 0 16 16" fill="none" xmlns="http://www.w3.org/2000/svg">
<path d="M7.99967 12C11.6817 12 14.6663 8 14.6663 8C14.6663 8 11.6817 4 7.99967 4C4.31767 4 1.33301 8 1.33301 8C1.33301 8 4.31767 12 7.99967 12Z" stroke="#616971" stroke-linejoin="round"/>
<path d="M7.99967 9.66665C8.4417 9.66665 8.86563 9.49105 9.17819 9.17849C9.49075 8.86593 9.66634 8.44201 9.66634 7.99998C9.66634 7.55795 9.49075 7.13403 9.17819 6.82147C8.86563 6.50891 8.4417 6.33331 7.99967 6.33331C7.55765 6.33331 7.13372 6.50891 6.82116 6.82147C6.5086 7.13403 6.33301 7.55795 6.33301 7.99998C6.33301 8.44201 6.5086 8.86593 6.82116 9.17849C7.13372 9.49105 7.55765 9.66665 7.99967 9.66665Z" stroke="#616971" stroke-linejoin="round"/>
</svg>
