<svg xmlns="http://www.w3.org/2000/svg" width="12.578" height="14.968" viewBox="0 0 12.578 14.968"><defs><style>.a{fill:#f39f2d;}</style></defs><g transform="translate(0 0.001)"><path class="a" d="M6409.551-8784.065a.769.769,0,0,1-.5-.186,16.167,16.167,0,0,1-4.138-3.873,8.017,8.017,0,0,1-1.654-4.618v-.02a6.3,6.3,0,0,1,6.289-6.271h.02a6.245,6.245,0,0,1,4.441,1.855,6.246,6.246,0,0,1,1.828,4.453v.073a9.255,9.255,0,0,1-2.849,5.978,16.5,16.5,0,0,1-2.941,2.423A.763.763,0,0,1,6409.551-8784.065Zm0-10.591a2.016,2.016,0,0,0-2.014,2.014,2.017,2.017,0,0,0,2.014,2.017,2.018,2.018,0,0,0,2.016-2.017A2.017,2.017,0,0,0,6409.549-8794.656Z" transform="translate(-6403.261 8799.032)"/></g></svg>