<svg xmlns="http://www.w3.org/2000/svg" width="14" height="9.692" viewBox="0 0 14 9.692"><defs><style>.a{fill:#f39f2d;}</style></defs><g transform="translate(-2.25 -5.25)"><path class="a" d="M16.136,6.9l-3.621,3.688a.065.065,0,0,0,0,.094l2.534,2.7a.437.437,0,0,1,0,.619.439.439,0,0,1-.619,0l-2.524-2.689a.069.069,0,0,0-.1,0l-.616.626a2.71,2.71,0,0,1-1.932.814,2.764,2.764,0,0,1-1.972-.838l-.592-.6a.069.069,0,0,0-.1,0L4.074,14a.439.439,0,0,1-.619,0,.437.437,0,0,1,0-.619l2.534-2.7a.072.072,0,0,0,0-.094L2.364,6.9a.066.066,0,0,0-.114.047v7.38A1.08,1.08,0,0,0,3.327,15.4H15.173a1.08,1.08,0,0,0,1.077-1.077V6.944A.067.067,0,0,0,16.136,6.9Z" transform="translate(0 -0.459)"/><path class="a" d="M9.41,11.412a1.83,1.83,0,0,0,1.316-.552l5.28-5.375a1.058,1.058,0,0,0-.666-.236H3.484a1.051,1.051,0,0,0-.666.236L8.1,10.86A1.83,1.83,0,0,0,9.41,11.412Z" transform="translate(-0.16)"/></g></svg>