<svg xmlns="http://www.w3.org/2000/svg" width="13.871" height="13.62" viewBox="0 0 13.871 13.62"><defs><style>.a{fill:#f39f2d;}.b{fill:none;stroke:#f39f2d;stroke-linecap:round;stroke-linejoin:round;stroke-miterlimit:10;}</style></defs><g transform="translate(0 0.377)"><path class="a" d="M.342,1.654C.562,1.288,1.777-.039,2.644,0a1.145,1.145,0,0,1,.674.361h0a11.769,11.769,0,0,1,1.72,2.328c.171.814-.8,1.284-.507,2.105A6.882,6.882,0,0,0,8.448,8.709c.82.3,1.29-.673,2.1-.5a11.755,11.755,0,0,1,2.328,1.72h0a1.142,1.142,0,0,1,.36.674c.032.912-1.378,2.145-1.653,2.3a2.413,2.413,0,0,1-2.526-.024c-2.876-1.2-7.477-5.709-8.7-8.694A2.42,2.42,0,0,1,.342,1.654Z" transform="translate(0 0.001)"/><path class="b" d="M0,0A5.556,5.556,0,0,1,4.908,4.9" transform="translate(8.41 0.175)"/><path class="b" d="M0,0A3.085,3.085,0,0,1,2.44,2.44" transform="translate(8.41 2.645)"/></g></svg>