<svg width="18" height="18" viewBox="0 0 18 18" fill="none" xmlns="http://www.w3.org/2000/svg">
<path d="M6.1574 3.96764C6.0871 4.03736 6.0313 4.12031 5.99323 4.2117C5.95515 4.3031 5.93555 4.40113 5.93555 4.50014C5.93555 4.59915 5.95515 4.69718 5.99323 4.78857C6.0313 4.87996 6.0871 4.96291 6.1574 5.03264L9.59239 8.46764C9.66268 8.53736 9.71848 8.62031 9.75656 8.71171C9.79463 8.8031 9.81424 8.90113 9.81424 9.00014C9.81424 9.09915 9.79463 9.19718 9.75656 9.28857C9.71848 9.37996 9.66268 9.46292 9.59239 9.53264L6.1574 12.9676C6.0871 13.0374 6.0313 13.1203 5.99323 13.2117C5.95515 13.3031 5.93555 13.4011 5.93555 13.5001C5.93555 13.5991 5.95515 13.6972 5.99323 13.7886C6.0313 13.88 6.0871 13.9629 6.1574 14.0326C6.29792 14.1723 6.48801 14.2507 6.68614 14.2507C6.88428 14.2507 7.07437 14.1723 7.21489 14.0326L10.6574 10.5901C11.0787 10.1683 11.3154 9.59639 11.3154 9.00014C11.3154 8.40389 11.0787 7.83201 10.6574 7.41014L7.21489 3.96764C7.07437 3.82795 6.88428 3.74954 6.68614 3.74954C6.48801 3.74954 6.29792 3.82795 6.1574 3.96764Z" fill="#343A40"/>
</svg>
