<svg width="7" height="12" viewBox="0 0 7 12" fill="none" xmlns="http://www.w3.org/2000/svg">
<path d="M5.54997 4.41011L2.10747 0.967606C1.96695 0.827918 1.77686 0.749512 1.57872 0.749512C1.38058 0.749512 1.1905 0.827918 1.04997 0.967606C0.979677 1.03733 0.923882 1.12028 0.885805 1.21167C0.847729 1.30307 0.828125 1.4011 0.828125 1.50011C0.828125 1.59912 0.847729 1.69714 0.885805 1.78854C0.923882 1.87993 0.979677 1.96288 1.04997 2.03261L4.49997 5.46761C4.57027 5.53733 4.62607 5.62028 4.66414 5.71167C4.70222 5.80307 4.72182 5.9011 4.72182 6.00011C4.72182 6.09912 4.70222 6.19715 4.66414 6.28854C4.62607 6.37993 4.57027 6.46288 4.49997 6.53261L1.04997 9.96761C0.908746 10.1078 0.82901 10.2984 0.828307 10.4975C0.827603 10.6965 0.905991 10.8876 1.04622 11.0289C1.18646 11.1701 1.37705 11.2498 1.57607 11.2505C1.7751 11.2512 1.96625 11.1728 2.10747 11.0326L5.54997 7.59011C5.97133 7.16823 6.208 6.59636 6.208 6.00011C6.208 5.40385 5.97133 4.83198 5.54997 4.41011V4.41011Z" fill="white"/>
</svg>
