<svg width="111" height="36" viewBox="0 0 111 36" fill="none" xmlns="http://www.w3.org/2000/svg">
<g clip-path="url(#clip0_16836_5648)">
<path d="M108.139 0H2.86082C1.28083 0 0 1.27919 0 2.85714V33.1429C0 34.7208 1.28083 36 2.86082 36H108.139C109.719 36 111 34.7208 111 33.1429V2.85714C111 1.27919 109.719 0 108.139 0Z" fill="#101419"/>
<path d="M26.8196 18.2131C26.8285 17.5315 27.0098 16.8631 27.3467 16.2703C27.6836 15.6774 28.1652 15.1793 28.7467 14.8223C28.3772 14.2955 27.8899 13.862 27.3234 13.5561C26.7569 13.2503 26.1267 13.0806 25.4831 13.0606C24.1099 12.9166 22.7784 13.8811 22.0787 13.8811C21.3652 13.8811 20.2878 13.0748 19.128 13.0988C18.3776 13.1233 17.6462 13.3414 17.0052 13.7319C16.3642 14.1225 15.8353 14.6721 15.4702 15.3274C13.8887 18.0623 15.0697 22.0811 16.583 24.2914C17.3412 25.3737 18.2269 26.5828 19.3866 26.54C20.5207 26.4931 20.9447 25.8177 22.3138 25.8177C23.6704 25.8177 24.0675 26.54 25.2502 26.5126C26.4672 26.4931 27.2339 25.4268 27.9657 24.3326C28.5103 23.5613 28.9293 22.7088 29.2073 21.8068C28.5002 21.5081 27.8969 21.0082 27.4724 20.3693C27.0479 19.7305 26.8211 18.981 26.8202 18.2143L26.8196 18.2131Z" fill="white"/>
<path d="M24.5866 11.6062C25.2502 10.8106 25.5772 9.7879 25.498 8.75537C24.4842 8.86176 23.5478 9.34571 22.8752 10.1108C22.5456 10.4846 22.293 10.9197 22.132 11.3911C21.9709 11.8626 21.9046 12.3611 21.9369 12.8582C22.444 12.8635 22.9457 12.7537 23.4042 12.5373C23.8626 12.3208 24.2659 12.0032 24.5837 11.6085L24.5866 11.6062Z" fill="white"/>
<path d="M41.1575 23.7983H37.2868L36.357 26.5411H34.7178L38.3842 16.3994H40.0875L43.754 26.5394H42.0867L41.1575 23.7983ZM37.6879 22.5331H40.7558L39.2436 18.0846H39.2013L37.6879 22.5331Z" fill="white"/>
<path d="M51.6716 22.8429C51.6716 25.1406 50.4403 26.6143 48.5819 26.6143C48.1112 26.6388 47.6431 26.5305 47.2312 26.3017C46.8192 26.0729 46.4801 25.7329 46.2527 25.3206H46.2178V28.9834H44.6975V19.1457H46.1674V20.3754H46.1954C46.4333 19.965 46.7782 19.6267 47.1933 19.3965C47.6084 19.1663 48.0782 19.0528 48.5528 19.068C50.4329 19.068 51.6716 20.5514 51.6716 22.8429ZM50.1096 22.8429C50.1096 21.3457 49.3349 20.3617 48.1534 20.3617C46.9925 20.3617 46.2115 21.3669 46.2115 22.8429C46.2115 24.3326 46.9925 25.3303 48.1534 25.3303C49.3349 25.3309 50.1096 24.3549 50.1096 22.8429Z" fill="white"/>
<path d="M59.821 22.8429C59.821 25.1406 58.5897 26.6143 56.7313 26.6143C56.2605 26.6388 55.7924 26.5305 55.3805 26.3017C54.9686 26.0729 54.6294 25.7329 54.402 25.3206H54.3671V28.9834H52.8491V19.1457H54.3202V20.3754H54.3482C54.5861 19.965 54.9309 19.6267 55.346 19.3965C55.7611 19.1663 56.2309 19.0528 56.7055 19.068C58.5822 19.068 59.821 20.5514 59.821 22.8429ZM58.2589 22.8429C58.2589 21.3457 57.4842 20.3617 56.3021 20.3617C55.1412 20.3617 54.3602 21.3669 54.3602 22.8429C54.3602 24.3326 55.1412 25.3303 56.3021 25.3303C57.4842 25.3303 58.2589 24.3532 58.2589 22.8429Z" fill="white"/>
<path d="M65.2061 23.7137C65.3205 24.7195 66.2972 25.38 67.6338 25.38C68.9149 25.38 69.8361 24.7195 69.8361 23.8126C69.8361 23.0252 69.2805 22.5555 67.9639 22.2309L66.648 21.9143C64.7833 21.4646 63.9176 20.5937 63.9176 19.18C63.9176 17.4303 65.4447 16.228 67.6126 16.228C69.7582 16.228 71.2293 17.428 71.2791 19.18H69.7451C69.6535 18.168 68.8153 17.5572 67.5915 17.5572C66.3676 17.5572 65.5317 18.1755 65.5317 19.0749C65.5317 19.792 66.0666 20.2137 67.3758 20.5366L68.4943 20.8109C70.5782 21.3029 71.4433 22.1389 71.4433 23.6223C71.4433 25.52 69.9299 26.708 67.5228 26.708C65.2708 26.708 63.7505 25.5475 63.6521 23.7132L65.2061 23.7137Z" fill="white"/>
<path d="M74.7218 17.396V19.1457H76.1299V20.3457H74.7218V24.4246C74.7218 25.0577 75.0038 25.3531 75.6223 25.3531C75.7895 25.3503 75.9565 25.3387 76.1224 25.3183V26.5131C75.8442 26.5651 75.5614 26.5887 75.2785 26.5834C73.7794 26.5834 73.1946 26.0211 73.1946 24.5874V20.3474H72.1184V19.1474H73.1946V17.396H74.7218Z" fill="white"/>
<path d="M76.9448 22.8428C76.9448 20.5165 78.318 19.0542 80.4562 19.0542C82.5944 19.0542 83.9687 20.5159 83.9687 22.8428C83.9687 25.1696 82.6104 26.6313 80.4562 26.6313C78.302 26.6313 76.9448 25.1753 76.9448 22.8428ZM82.4199 22.8428C82.4199 21.2468 81.6875 20.3051 80.4562 20.3051C79.2249 20.3051 78.4931 21.2542 78.4931 22.8428C78.4931 24.4428 79.2249 25.3799 80.4562 25.3799C81.6875 25.3799 82.4199 24.4451 82.4199 22.8428Z" fill="white"/>
<path d="M85.2212 19.1455H86.6705V20.4027H86.7054C86.8035 20.0097 87.034 19.6624 87.3583 19.4191C87.6825 19.1758 88.0807 19.0514 88.486 19.0667C88.6611 19.0663 88.8357 19.0855 89.0066 19.1238V20.5433C88.7856 20.4756 88.5551 20.4445 88.324 20.4513C88.1032 20.4423 87.8831 20.4811 87.6788 20.5651C87.4744 20.6491 87.2907 20.7763 87.1402 20.9379C86.9898 21.0995 86.8761 21.2918 86.8071 21.5014C86.738 21.711 86.7152 21.9331 86.7403 22.1524V26.5381H85.2212V19.1455Z" fill="white"/>
<path d="M96.0139 24.3673C95.8096 25.7096 94.5011 26.6308 92.8264 26.6308C90.6722 26.6308 89.3362 25.1896 89.3362 22.8776C89.3362 20.5656 90.6808 19.0542 92.7634 19.0542C94.8118 19.0542 96.0997 20.4593 96.0997 22.7016V23.2216H90.8707V23.3136C90.8467 23.5858 90.8809 23.8599 90.971 24.1179C91.0612 24.3758 91.2053 24.6116 91.3937 24.8097C91.5821 25.0078 91.8106 25.1636 92.0639 25.2667C92.3172 25.3698 92.5896 25.418 92.863 25.4079C93.2221 25.4413 93.5823 25.3581 93.8903 25.1707C94.1983 24.9834 94.4376 24.7018 94.5726 24.3679L96.0139 24.3673ZM90.877 22.1605H94.5783C94.592 21.9159 94.5548 21.6711 94.4692 21.4414C94.3837 21.2118 94.2515 21.0024 94.081 20.8262C93.9106 20.65 93.7055 20.5109 93.4787 20.4175C93.2518 20.3242 93.0081 20.2787 92.7629 20.2839C92.5152 20.2821 92.2696 20.3293 92.0403 20.4229C91.811 20.5164 91.6025 20.6545 91.427 20.8289C91.2514 21.0034 91.1122 21.211 91.0174 21.4395C90.9226 21.6681 90.8741 21.9131 90.8747 22.1605H90.877Z" fill="white"/>
<path d="M37.4974 8.76382C37.816 8.74101 38.1357 8.78908 38.4334 8.90458C38.7311 9.02007 38.9995 9.20012 39.2191 9.43172C39.4388 9.66332 39.6042 9.94071 39.7035 10.2439C39.8029 10.5471 39.8336 10.8685 39.7935 11.185C39.7935 12.7415 38.9507 13.637 37.4974 13.637H35.7351V8.76382H37.4974ZM36.4955 12.9478H37.411C37.6386 12.9614 37.8664 12.9241 38.0778 12.8386C38.2892 12.7532 38.4789 12.6217 38.633 12.4539C38.7871 12.286 38.9018 12.0859 38.9687 11.8682C39.0357 11.6505 39.0531 11.4206 39.0199 11.1953C39.0508 10.9708 39.0316 10.7423 38.9637 10.5261C38.8957 10.3099 38.7808 10.1114 38.627 9.94487C38.4732 9.77829 38.2845 9.64775 38.0742 9.56261C37.864 9.47747 37.6375 9.43983 37.411 9.45239H36.4955V12.9478Z" fill="white"/>
<path d="M40.6494 11.7965C40.6261 11.5548 40.6537 11.3108 40.7304 11.0804C40.807 10.8499 40.9311 10.638 41.0946 10.4582C41.2581 10.2784 41.4575 10.1348 41.6799 10.0365C41.9022 9.93823 42.1427 9.88745 42.3859 9.88745C42.6291 9.88745 42.8696 9.93823 43.0919 10.0365C43.3143 10.1348 43.5136 10.2784 43.6771 10.4582C43.8407 10.638 43.9647 10.8499 44.0414 11.0804C44.1181 11.3108 44.1457 11.5548 44.1224 11.7965C44.1457 12.0383 44.1181 12.2822 44.0414 12.5127C43.9647 12.7431 43.8407 12.9551 43.6771 13.1348C43.5136 13.3146 43.3143 13.4582 43.0919 13.5565C42.8696 13.6548 42.6291 13.7056 42.3859 13.7056C42.1427 13.7056 41.9022 13.6548 41.6799 13.5565C41.4575 13.4582 41.2581 13.3146 41.0946 13.1348C40.9311 12.9551 40.807 12.7431 40.7304 12.5127C40.6537 12.2822 40.6261 12.0383 40.6494 11.7965ZM43.3752 11.7965C43.3752 10.9994 43.0164 10.5331 42.3876 10.5331C41.7588 10.5331 41.4018 10.9994 41.4018 11.7965C41.4018 12.5937 41.7571 13.0628 42.3887 13.0628C43.0204 13.0628 43.3763 12.5971 43.3763 11.7965H43.3752Z" fill="white"/>
<path d="M48.7393 13.6372H47.9835L47.2225 10.9286H47.1653L46.4078 13.6372H45.6622L44.6472 9.95947H45.3842L46.0439 12.7658H46.0982L46.8552 9.95947H47.5521L48.3091 12.7658H48.3663L49.0226 9.95947H49.7492L48.7393 13.6372Z" fill="white"/>
<path d="M50.604 9.95933H51.3038V10.5433H51.3581C51.4502 10.3334 51.6057 10.1575 51.8027 10.04C51.9997 9.9225 52.2285 9.86933 52.4572 9.8879C52.6362 9.87461 52.8159 9.90166 52.9829 9.96705C53.15 10.0324 53.3002 10.1345 53.4225 10.2657C53.5448 10.3968 53.636 10.5538 53.6894 10.7249C53.7427 10.896 53.7569 11.0769 53.7309 11.2542V13.637H53.0042V11.4382C53.0042 10.8473 52.7473 10.553 52.2095 10.553C52.0881 10.5475 51.9669 10.5681 51.8542 10.6136C51.7415 10.6591 51.64 10.7283 51.5566 10.8166C51.4731 10.9048 51.4097 11.0101 51.3708 11.125C51.3318 11.24 51.3181 11.362 51.3307 11.4828V13.637H50.604V9.95933Z" fill="white"/>
<path d="M54.8894 8.52393H55.6161V13.6371H54.8894V8.52393Z" fill="white"/>
<path d="M56.626 11.7964C56.6031 11.5549 56.6311 11.3113 56.708 11.0811C56.7849 10.851 56.909 10.6394 57.0725 10.46C57.236 10.2806 57.4353 10.1372 57.6574 10.0391C57.8796 9.94105 58.1199 9.89038 58.3628 9.89038C58.6057 9.89038 58.8459 9.94105 59.0681 10.0391C59.2903 10.1372 59.4895 10.2806 59.653 10.46C59.8165 10.6394 59.9407 10.851 60.0176 11.0811C60.0945 11.3113 60.1224 11.5549 60.0996 11.7964C60.1233 12.0385 60.096 12.2828 60.0196 12.5137C59.9431 12.7445 59.819 12.9569 59.6555 13.137C59.4919 13.3172 59.2923 13.4611 59.0697 13.5596C58.8471 13.6581 58.6063 13.709 58.3628 13.709C58.1193 13.709 57.8785 13.6581 57.6558 13.5596C57.4332 13.4611 57.2337 13.3172 57.0701 13.137C56.9065 12.9569 56.7825 12.7445 56.706 12.5137C56.6295 12.2828 56.6023 12.0385 56.626 11.7964ZM59.3518 11.7964C59.3518 10.9964 58.993 10.533 58.3642 10.533C57.7354 10.533 57.3772 10.9993 57.3772 11.7964C57.3772 12.5936 57.7325 13.0627 58.3642 13.0627C58.9959 13.0627 59.3518 12.597 59.3518 11.7964Z" fill="white"/>
<path d="M60.864 12.5972C60.864 11.9354 61.3578 11.5537 62.2338 11.4994L63.2311 11.4423V11.1246C63.2311 10.736 62.9742 10.5172 62.4775 10.5172C62.0719 10.5172 61.7909 10.6657 61.7102 10.9257H61.0065C61.0809 10.2943 61.6759 9.88916 62.5113 9.88916C63.4342 9.88916 63.9549 10.3463 63.9549 11.1252V13.6394H63.2557V13.1252H63.1985C63.0817 13.3105 62.9178 13.4616 62.7235 13.563C62.5292 13.6644 62.3115 13.7125 62.0925 13.7023C61.9374 13.7186 61.7807 13.7021 61.6324 13.654C61.4842 13.6058 61.3477 13.5271 61.2319 13.4229C61.116 13.3187 61.0234 13.1913 60.9601 13.0491C60.8967 12.9068 60.864 12.7529 60.864 12.5972ZM63.2311 12.2829V11.9754L62.3316 12.0326C61.8247 12.0663 61.5947 12.2389 61.5947 12.5629C61.5947 12.8869 61.8808 13.0863 62.2773 13.0863C62.393 13.0982 62.51 13.0866 62.6212 13.0524C62.7325 13.0182 62.8357 12.962 62.9247 12.8872C63.0137 12.8123 63.0868 12.7203 63.1395 12.6167C63.1922 12.5131 63.2236 12.4 63.2316 12.284L63.2311 12.2829Z" fill="white"/>
<path d="M64.9097 11.7965C64.9097 10.6342 65.5076 9.89821 66.4379 9.89821C66.6681 9.88757 66.8965 9.94259 67.0965 10.0568C67.2965 10.1711 67.4599 10.3398 67.5674 10.5434H67.6217V8.52393H68.3484V13.6371H67.6521V13.0559H67.5948C67.479 13.2581 67.3101 13.4247 67.1063 13.5378C66.9024 13.6509 66.6715 13.7062 66.4385 13.6976C65.5013 13.6976 64.9097 12.9599 64.9097 11.7965ZM65.6604 11.7965C65.6604 12.5765 66.0282 13.0456 66.6439 13.0456C67.2595 13.0456 67.6349 12.5696 67.6349 11.7994C67.6349 11.0291 67.2521 10.5502 66.6439 10.5502C66.0357 10.5502 65.6598 11.0228 65.6598 11.7965H65.6604Z" fill="white"/>
<path d="M71.3552 11.7965C71.3319 11.5548 71.3595 11.3108 71.4362 11.0804C71.5128 10.8499 71.6369 10.638 71.8004 10.4582C71.964 10.2784 72.1633 10.1348 72.3857 10.0365C72.608 9.93823 72.8485 9.88745 73.0917 9.88745C73.3349 9.88745 73.5754 9.93823 73.7977 10.0365C74.0201 10.1348 74.2194 10.2784 74.383 10.4582C74.5465 10.638 74.6705 10.8499 74.7472 11.0804C74.8239 11.3108 74.8515 11.5548 74.8282 11.7965C74.8515 12.0383 74.8239 12.2822 74.7472 12.5127C74.6705 12.7431 74.5465 12.9551 74.383 13.1348C74.2194 13.3146 74.0201 13.4582 73.7977 13.5565C73.5754 13.6548 73.3349 13.7056 73.0917 13.7056C72.8485 13.7056 72.608 13.6548 72.3857 13.5565C72.1633 13.4582 71.964 13.3146 71.8004 13.1348C71.6369 12.9551 71.5128 12.7431 71.4362 12.5127C71.3595 12.2822 71.3319 12.0383 71.3552 11.7965ZM74.081 11.7965C74.081 10.9994 73.7222 10.5331 73.0928 10.5331C72.4635 10.5331 72.1059 10.9994 72.1059 11.7965C72.1059 12.5937 72.4612 13.0628 73.0928 13.0628C73.7245 13.0628 74.0821 12.5971 74.0821 11.7965H74.081Z" fill="white"/>
<path d="M75.8032 9.95933H76.503V10.5433H76.5573C76.6495 10.3334 76.8049 10.1575 77.0019 10.04C77.1989 9.9225 77.4277 9.86933 77.6565 9.8879C77.8355 9.87452 78.0152 9.9015 78.1823 9.96685C78.3495 10.0322 78.4998 10.1342 78.6221 10.2654C78.7445 10.3966 78.8357 10.5536 78.8891 10.7247C78.9425 10.8959 78.9567 11.0768 78.9307 11.2542V13.637H78.204V11.4382C78.204 10.8473 77.9471 10.553 77.4093 10.553C77.2879 10.5475 77.1666 10.5681 77.0539 10.6136C76.9412 10.6591 76.8397 10.7283 76.7562 10.8166C76.6727 10.9048 76.6093 11.01 76.5702 11.125C76.5312 11.24 76.5174 11.362 76.5299 11.4828V13.637H75.8032V9.95933Z" fill="white"/>
<path d="M83.0348 9.04395V9.97652H83.8358V10.5879H83.0348V12.4788C83.0348 12.8639 83.1938 13.0325 83.5555 13.0325C83.648 13.0323 83.7405 13.0268 83.8324 13.0159V13.6205C83.7019 13.6439 83.5696 13.6563 83.437 13.6577C82.6285 13.6577 82.307 13.3719 82.307 12.6645V10.5874H81.7251V9.97594H82.3098V9.04395H83.0348Z" fill="white"/>
<path d="M84.8252 8.52393H85.5456V10.5508H85.6028C85.6993 10.339 85.8589 10.1621 86.0598 10.0442C86.2607 9.92629 86.4931 9.87312 86.7254 9.89193C86.9036 9.88226 87.0818 9.912 87.2473 9.97904C87.4127 10.0461 87.5612 10.1488 87.6824 10.2798C87.8035 10.4108 87.8941 10.5668 87.9479 10.7369C88.0016 10.9069 88.0171 11.0867 87.9933 11.2634V13.6376H87.2689V11.4416C87.2689 10.8542 86.9949 10.5565 86.4816 10.5565C86.3566 10.546 86.2309 10.5629 86.1131 10.6061C85.9954 10.6494 85.8886 10.7178 85.8002 10.8067C85.7119 10.8956 85.6441 11.0028 85.6017 11.1207C85.5593 11.2386 85.5432 11.3643 85.5547 11.4891V13.6371H84.8252V8.52393Z" fill="white"/>
<path d="M92.2336 12.6439C92.1349 12.9799 91.921 13.2706 91.6294 13.4651C91.3378 13.6596 90.987 13.7455 90.6384 13.7079C90.3958 13.7143 90.1547 13.668 89.9318 13.572C89.709 13.476 89.5097 13.3327 89.3478 13.1521C89.186 12.9715 89.0654 12.7578 88.9945 12.526C88.9237 12.2942 88.9042 12.0497 88.9374 11.8096C88.9051 11.5688 88.9249 11.3239 88.9957 11.0914C89.0664 10.859 89.1863 10.6444 89.3473 10.4622C89.5082 10.28 89.7065 10.1345 89.9287 10.0356C90.1509 9.93657 90.3917 9.88642 90.635 9.88849C91.6597 9.88849 92.2777 10.5873 92.2777 11.7422V11.9982H89.6772V12.0388C89.6657 12.1738 89.6826 12.3098 89.7268 12.4379C89.7711 12.566 89.8417 12.6835 89.9341 12.7827C90.0265 12.8819 90.1387 12.9608 90.2635 13.0141C90.3882 13.0675 90.5228 13.0942 90.6584 13.0925C90.8322 13.1132 91.0083 13.0819 91.1643 13.0026C91.3202 12.9232 91.4491 12.7994 91.5344 12.6468L92.2336 12.6439ZM89.6772 11.4588H91.5373C91.5463 11.3353 91.5294 11.2114 91.4877 11.0948C91.446 10.9783 91.3803 10.8718 91.2949 10.7821C91.2095 10.6924 91.1063 10.6215 90.9918 10.574C90.8774 10.5265 90.7543 10.5034 90.6304 10.5062C90.5047 10.5047 90.38 10.5283 90.2636 10.5756C90.1471 10.6229 90.0413 10.6929 89.9524 10.7816C89.8638 10.8706 89.7938 10.9763 89.7464 11.0925C89.6991 11.2087 89.6755 11.3333 89.6772 11.4588Z" fill="white"/>
</g>
<defs>
<clipPath id="clip0_16836_5648">
<rect width="111" height="36" fill="white"/>
</clipPath>
</defs>
</svg>
