<svg width="20" height="20" viewBox="0 0 20 20" fill="none" xmlns="http://www.w3.org/2000/svg">
<g clip-path="url(#clip0_15955_104635)">
<path d="M19.7561 0.244233C19.5999 0.088007 19.3879 0.000244141 19.167 0.000244141C18.946 0.000244141 18.7341 0.088007 18.5778 0.244233L10.0003 8.82173L1.42281 0.244233C1.26654 0.088007 1.05461 0.000244141 0.833644 0.000244141C0.612674 0.000244141 0.40075 0.088007 0.244477 0.244233C0.0882511 0.400506 0.000488281 0.612429 0.000488281 0.833399C0.000488281 1.05437 0.0882511 1.26629 0.244477 1.42257L8.82198 10.0001L0.244477 18.5776C0.0882511 18.7338 0.000488281 18.9458 0.000488281 19.1667C0.000488281 19.3877 0.0882511 19.5996 0.244477 19.7559C0.40075 19.9121 0.612674 19.9999 0.833644 19.9999C1.05461 19.9999 1.26654 19.9121 1.42281 19.7559L10.0003 11.1784L18.5778 19.7559C18.7341 19.9121 18.946 19.9999 19.167 19.9999C19.3879 19.9999 19.5999 19.9121 19.7561 19.7559C19.9124 19.5996 20.0001 19.3877 20.0001 19.1667C20.0001 18.9458 19.9124 18.7338 19.7561 18.5776L11.1786 10.0001L19.7561 1.42257C19.9124 1.26629 20.0001 1.05437 20.0001 0.833399C20.0001 0.612429 19.9124 0.400506 19.7561 0.244233Z" fill="#374957"/>
</g>
<defs>
<clipPath id="clip0_15955_104635">
<rect width="20" height="20" fill="white"/>
</clipPath>
</defs>
</svg>
