<svg width="111" height="36" viewBox="0 0 111 36" fill="none" xmlns="http://www.w3.org/2000/svg">
<g clip-path="url(#clip0_16836_5674)">
<path d="M108.139 0H2.86082C1.28083 0 0 1.27919 0 2.85714V33.1429C0 34.7208 1.28083 36 2.86082 36H108.139C109.719 36 111 34.7208 111 33.1429V2.85714C111 1.27919 109.719 0 108.139 0Z" fill="#101419"/>
<path d="M38.5027 10.0001C38.5175 10.2998 38.4712 10.5994 38.3664 10.8806C38.2617 11.1619 38.1007 11.4189 37.8933 11.6361C37.6608 11.8766 37.3801 12.0654 37.0695 12.1903C36.759 12.3151 36.4255 12.3732 36.091 12.3607C35.7543 12.3637 35.4203 12.2995 35.1087 12.1718C34.7972 12.0441 34.5143 11.8555 34.2768 11.617C34.0393 11.3786 33.852 11.0951 33.7258 10.7832C33.5996 10.4714 33.5371 10.1375 33.542 9.80122C33.5373 9.46496 33.5999 9.13115 33.7261 8.81938C33.8524 8.50762 34.0397 8.2242 34.2772 7.98576C34.5146 7.74733 34.7974 7.55869 35.1089 7.43093C35.4204 7.30317 35.7543 7.23887 36.091 7.24179C36.4371 7.24068 36.7797 7.31071 37.0974 7.44751C37.3929 7.56719 37.656 7.75474 37.8653 7.99494L37.4333 8.42637C37.2691 8.23304 37.0626 8.08002 36.8298 7.97915C36.5969 7.87828 36.344 7.83226 36.0904 7.84465C35.8353 7.84328 35.5825 7.89336 35.3471 7.99188C35.1118 8.09041 34.8988 8.23536 34.7209 8.41805C34.543 8.60073 34.4039 8.8174 34.3118 9.05507C34.2197 9.29274 34.1767 9.54653 34.1851 9.80122C34.179 10.1829 34.2865 10.5577 34.494 10.8782C34.7015 11.1988 34.9996 11.4505 35.3506 11.6016C35.7015 11.7527 36.0895 11.7963 36.4653 11.7268C36.8411 11.6574 37.1878 11.478 37.4613 11.2115C37.713 10.9406 37.8587 10.5883 37.8716 10.2189H36.0916V9.63037H38.4684C38.4907 9.75235 38.5022 9.87607 38.5027 10.0001Z" fill="white"/>
<path d="M38.5027 10.0001H38.4209C38.4361 10.2891 38.3922 10.5781 38.2919 10.8496C38.1915 11.121 38.0369 11.3692 37.8373 11.579C37.6124 11.8116 37.3409 11.9941 37.0404 12.1145C36.74 12.2349 36.4174 12.2906 36.0939 12.2778C35.7679 12.281 35.4445 12.219 35.1428 12.0954C34.8412 11.9718 34.5673 11.7892 34.3374 11.5583C34.1075 11.3274 33.9262 11.0529 33.8041 10.751C33.6821 10.449 33.6218 10.1257 33.6267 9.80011C33.6219 9.47456 33.6823 9.15133 33.8044 8.84944C33.9266 8.54756 34.1079 8.27311 34.3378 8.04225C34.5676 7.81139 34.8414 7.62877 35.143 7.50515C35.4446 7.38152 35.7679 7.31939 36.0939 7.32239C36.4284 7.32159 36.7595 7.38947 37.0666 7.52182C37.3501 7.63639 37.6026 7.81611 37.8035 8.04639L37.8665 7.99439L37.8093 7.93725L37.3784 8.36868L37.4356 8.42582L37.4986 8.37382C37.3266 8.17141 37.1105 8.01108 36.8668 7.90518C36.6231 7.79928 36.3583 7.75063 36.0928 7.76297C35.8269 7.7616 35.5634 7.8138 35.3182 7.91643C35.0729 8.01906 34.8509 8.17003 34.6654 8.3603C34.4799 8.55057 34.3347 8.77625 34.2386 9.02383C34.1424 9.27141 34.0972 9.53582 34.1056 9.80125C34.0994 10.199 34.2115 10.5896 34.4279 10.9235C34.6442 11.2575 34.955 11.5198 35.3208 11.6771C35.6866 11.8344 36.0909 11.8797 36.4825 11.8072C36.8741 11.7347 37.2353 11.5476 37.5203 11.2698C37.7856 10.9851 37.9398 10.6149 37.9552 10.2264L37.9632 10.1384H36.1734V9.71268H38.4667V9.63039L38.3866 9.64525C38.408 9.76253 38.4189 9.88147 38.4192 10.0007H38.5828C38.5826 9.87166 38.5706 9.74293 38.5468 9.61611L38.5353 9.54925H36.0098V10.3013H37.8728V10.219L37.7921 10.2115C37.7802 10.5617 37.6428 10.8959 37.4047 11.1532C37.1444 11.4131 36.8119 11.5888 36.4504 11.6578C36.0889 11.7267 35.715 11.6857 35.3771 11.54C35.0392 11.3942 34.7529 11.1505 34.5553 10.8404C34.3577 10.5303 34.2578 10.1681 34.2687 9.80068C34.2603 9.55674 34.3013 9.31361 34.3893 9.08589C34.4773 8.85816 34.6104 8.65053 34.7807 8.47545C34.951 8.30036 35.1549 8.16143 35.3803 8.06698C35.6057 7.97254 35.8478 7.92452 36.0922 7.92582C36.3338 7.91339 36.5749 7.95672 36.797 8.05245C37.0191 8.14818 37.2161 8.29374 37.3727 8.47782L37.4299 8.54639L37.9237 8.05211L37.9769 7.99897L37.9288 7.94182C37.7119 7.69135 37.4388 7.49557 37.1318 7.37039C36.8035 7.22931 36.4496 7.15697 36.0922 7.15782C35.7446 7.15467 35.3999 7.22092 35.0783 7.35269C34.7568 7.48446 34.4648 7.67909 34.2196 7.92514C33.9744 8.1712 33.7809 8.46371 33.6505 8.7855C33.5201 9.10728 33.4554 9.45185 33.4602 9.79896C33.4552 10.1461 33.5197 10.4908 33.65 10.8127C33.7804 11.1346 33.9738 11.4272 34.2191 11.6733C34.4643 11.9194 34.7564 12.114 35.0781 12.2457C35.3997 12.3774 35.7446 12.4435 36.0922 12.4401C36.4373 12.4529 36.7812 12.393 37.1016 12.2644C37.4219 12.1357 37.7116 11.9411 37.9517 11.6933L37.8945 11.6361L37.9517 11.6933C38.1666 11.4686 38.3335 11.2027 38.4423 10.9116C38.5511 10.6205 38.5995 10.3104 38.5845 10.0001H38.5027Z" fill="white"/>
<path d="M42.2715 7.9532H40.04V9.50634H42.0552V10.0932H40.0378V11.6463H42.2692V12.2481H39.4072V7.35034H42.2715V7.9532Z" fill="white"/>
<path d="M42.2715 7.95427V7.87141H39.956V9.5857H41.9706V10.0114H39.956V11.7257H42.1874V12.164H39.4891V7.43198H42.1903V7.95427H42.2721H42.3539V7.26855H39.3254V12.332H42.3533V11.5668H40.1219V10.1771H42.1365V9.42455H40.1196V8.03484H42.351V7.95427H42.2715Z" fill="white"/>
<path d="M44.9303 12.2503H44.3009V7.9532H42.9277V7.35034H46.2995V7.9532H44.9263L44.9303 12.2503Z" fill="white"/>
<path d="M44.9303 12.2503V12.1686H44.3816V7.87141H43.0084V7.43198H46.2166V7.87141H44.8434V12.2503H44.9252H45.007V8.03484H46.3802V7.26855H42.8477V8.03484H44.2209V12.332H45.015V12.2503H44.9303Z" fill="white"/>
<path d="M48.7405 12.332H49.4517V7.26855H48.6587V12.332H48.7405Z" fill="white"/>
<path d="M52.1672 12.2503H51.5378V7.9532H50.1658V7.35034H53.5375V7.9532H52.1643L52.1672 12.2503Z" fill="white"/>
<path d="M52.1672 12.2503V12.1686H51.618V7.87141H50.2476V7.43198H53.4558V7.87141H52.0826V12.2503H52.1644H52.2462V8.03484H53.6194V7.26855H50.084V8.03484H51.4537V12.332H52.2485V12.2503H52.1672Z" fill="white"/>
<path d="M56.7873 11.2081C57.1413 11.5604 57.6205 11.7582 58.1202 11.7582C58.6199 11.7582 59.0991 11.5604 59.4531 11.2081C59.6344 11.0225 59.7762 10.8022 59.8699 10.5604C59.9636 10.3186 60.0073 10.0604 59.9983 9.80124C60.0073 9.5422 59.9635 9.28405 59.8698 9.04235C59.7761 8.80066 59.6343 8.58043 59.4531 8.39495C59.0991 8.04269 58.6199 7.84489 58.1202 7.84489C57.6205 7.84489 57.1413 8.04269 56.7873 8.39495C56.6062 8.58047 56.4645 8.80073 56.3709 9.04242C56.2773 9.28412 56.2336 9.54224 56.2426 9.80124C56.2336 10.0603 56.2772 10.3185 56.3708 10.5603C56.4644 10.8021 56.6061 11.0225 56.7873 11.2081ZM59.9194 11.6178C59.4418 12.0932 58.795 12.3601 58.1208 12.3601C57.4465 12.3601 56.7997 12.0932 56.3222 11.6178C56.0859 11.3788 55.9002 11.0947 55.7761 10.7825C55.6519 10.4704 55.5919 10.1365 55.5995 9.80067C55.5919 9.46495 55.6519 9.13112 55.776 8.81905C55.9002 8.50697 56.0859 8.22302 56.3222 7.98409C56.5581 7.74822 56.8384 7.56116 57.1468 7.43365C57.4553 7.30613 57.7859 7.24065 58.1198 7.24097C58.4536 7.24129 58.7841 7.30739 59.0923 7.4355C59.4006 7.56361 59.6804 7.7512 59.9159 7.98752C60.1524 8.22578 60.3385 8.50905 60.4632 8.82051C60.5879 9.13197 60.6487 9.46528 60.642 9.80067C60.6495 10.1364 60.5895 10.4702 60.4655 10.7824C60.3414 11.0945 60.1559 11.3786 59.9199 11.6178H59.9194Z" fill="white"/>
<path d="M56.7879 11.2079L56.7307 11.265C57.0997 11.6332 57.6 11.84 58.1216 11.84C58.6432 11.84 59.1435 11.6332 59.5125 11.265C59.7014 11.072 59.8493 10.8428 59.9471 10.5912C60.0449 10.3396 60.0908 10.0708 60.0818 9.80105C60.0907 9.53138 60.0448 9.26271 59.947 9.01121C59.8491 8.75971 59.7014 8.53058 59.5125 8.33762C59.1435 7.96948 58.6432 7.7627 58.1216 7.7627C57.6 7.7627 57.0997 7.96948 56.7307 8.33762C56.5421 8.53068 56.3945 8.75985 56.2968 9.01134C56.1992 9.26284 56.1535 9.53146 56.1625 9.80105C56.1534 10.0707 56.1991 10.3395 56.2967 10.5911C56.3944 10.8427 56.542 11.0719 56.7307 11.265L56.7879 11.2079L56.8451 11.1508C56.6715 10.9727 56.5358 10.7614 56.4463 10.5295C56.3568 10.2976 56.3153 10.05 56.3244 9.80162C56.3155 9.55328 56.357 9.3057 56.4465 9.07383C56.536 8.84195 56.6716 8.63059 56.8451 8.45248C57.1834 8.11543 57.6418 7.92615 58.1196 7.92615C58.5975 7.92615 59.0558 8.11543 59.3941 8.45248C59.5684 8.62999 59.7046 8.84113 59.7944 9.073C59.8843 9.30487 59.9258 9.5526 59.9165 9.80105C59.9257 10.0494 59.8842 10.2971 59.7945 10.5289C59.7047 10.7608 59.5687 10.972 59.3947 11.1496C59.0565 11.4869 58.5981 11.6764 58.1202 11.6764C57.6422 11.6764 57.1838 11.4869 56.8457 11.1496L56.7879 11.2079ZM59.9199 11.6176L59.8627 11.5605C59.4006 12.0204 58.7748 12.2786 58.1225 12.2786C57.4701 12.2786 56.8443 12.0204 56.3822 11.5605C56.1533 11.329 55.9735 11.0539 55.8534 10.7515C55.7332 10.4491 55.6753 10.1257 55.683 9.80047C55.6754 9.47544 55.7334 9.15221 55.8535 8.85003C55.9737 8.54786 56.1535 8.27292 56.3822 8.04162C56.6106 7.81348 56.8817 7.63258 57.1802 7.50925C57.4786 7.38593 57.7985 7.32261 58.1215 7.32293C58.4444 7.32325 58.7642 7.3872 59.0624 7.51111C59.3606 7.63502 59.6314 7.81646 59.8593 8.04505C60.0886 8.27557 60.269 8.54986 60.3898 8.85157C60.5106 9.15327 60.5694 9.47619 60.5625 9.80105C60.5699 10.1263 60.5118 10.4497 60.3916 10.752C60.2713 11.0544 60.0915 11.3295 59.8627 11.561L59.9806 11.6753C60.2236 11.4283 60.4146 11.1352 60.5423 10.8133C60.6701 10.4914 60.732 10.1472 60.7244 9.80105C60.731 9.45513 60.6682 9.1114 60.5395 8.79016C60.4109 8.46892 60.2191 8.1767 59.9754 7.93076C59.7322 7.68666 59.4431 7.4929 59.1248 7.36058C58.8065 7.22826 58.4651 7.15999 58.1203 7.15967C57.7755 7.15935 57.434 7.227 57.1155 7.35873C56.7969 7.49046 56.5075 7.68368 56.2638 7.92733C56.0205 8.17401 55.8293 8.46696 55.7015 8.78883C55.5738 9.11069 55.512 9.4549 55.52 9.80105C55.512 10.1473 55.5737 10.4916 55.7015 10.8136C55.8293 11.1355 56.0205 11.4286 56.2638 11.6753C56.7571 12.1661 57.425 12.4417 58.1213 12.4417C58.8176 12.4417 59.4856 12.1661 59.9789 11.6753L59.9199 11.6176Z" fill="white"/>
<path d="M61.5271 12.2503V7.35034H62.2944L64.6786 11.1623H64.7055L64.6786 10.2183V7.35034H65.308V12.2503H64.6517L62.1571 8.25434H62.1302L62.1571 9.19834V12.2503H61.5271Z" fill="white"/>
<path d="M61.5279 12.2503H61.6097V7.43198H62.2499L64.6342 11.244H64.7904L64.7612 10.2154V7.43198H65.2292V12.1686H64.6982L62.2053 8.17255H62.0485L62.0777 9.20113V12.1726H61.5296V12.2543V12.336H62.2408V9.1977L62.2139 8.25198H62.1321V8.3337H62.159V8.25198L62.0909 8.29713L64.6084 12.3314H65.3923V7.26855H64.5975V10.2194L64.6244 11.1651H64.7062V11.0834H64.6794V11.1651L64.7486 11.1217L62.3409 7.26855H61.446V12.332H61.5279V12.2503Z" fill="white"/>
<path d="M87.1723 26.1348H88.6982V15.925H87.1723V26.1348ZM100.916 19.6022L99.1671 24.0285H99.1151L97.2996 19.6022H95.6558L98.3775 25.7896L96.8253 29.2302H98.4176L102.612 19.6022H100.916ZM92.2628 24.9736C91.7622 24.9736 91.0658 24.7245 91.0658 24.1073C91.0658 23.3193 91.9344 23.017 92.6834 23.017C93.1705 23.0045 93.6521 23.1229 94.0777 23.3599C94.0214 23.8026 93.8065 24.2099 93.4727 24.5067C93.139 24.8034 92.709 24.9695 92.2622 24.9742L92.2628 24.9736ZM92.447 19.3788C91.8902 19.3462 91.3359 19.4768 90.8523 19.7544C90.3687 20.032 89.9768 20.4447 89.7247 20.9416L91.079 21.5068C91.2132 21.2599 91.4167 21.0576 91.6643 20.9245C91.912 20.7915 92.1932 20.7335 92.4734 20.7576C92.8602 20.7205 93.246 20.8379 93.5462 21.0843C93.8465 21.3306 94.0368 21.6857 94.0754 22.0719V22.177C93.5855 21.917 93.039 21.7816 92.4842 21.7828C91.0246 21.7828 89.5382 22.5828 89.5382 24.0816C89.5382 25.4473 90.7351 26.3273 92.0763 26.3273C92.4603 26.3495 92.8432 26.2686 93.1853 26.0931C93.5274 25.9175 93.8161 25.6537 94.0216 25.329H94.0737V26.1176H95.5465V22.2033C95.5499 20.3902 94.1956 19.3793 92.4465 19.3793L92.447 19.3788ZM83.0161 20.8433H80.8464V17.3456H83.0161C83.2499 17.3396 83.4826 17.3805 83.7004 17.4657C83.9181 17.551 84.1166 17.6789 84.2841 17.842C84.4516 18.005 84.5848 18.2 84.6757 18.4152C84.7665 18.6305 84.8134 18.8617 84.8134 19.0953C84.8134 19.3289 84.7665 19.5602 84.6757 19.7755C84.5848 19.9907 84.4516 20.1856 84.2841 20.3487C84.1166 20.5117 83.9181 20.6397 83.7004 20.7249C83.4826 20.8102 83.2499 20.851 83.0161 20.845V20.8433ZM82.9766 15.9228H79.321V26.1348H80.8458V22.2662H82.9766C83.407 22.2878 83.8373 22.2218 84.2414 22.0721C84.6455 21.9225 85.0149 21.6924 85.3272 21.3958C85.6395 21.0992 85.8882 20.7422 86.0581 20.3467C86.228 19.9511 86.3156 19.5252 86.3156 19.0948C86.3156 18.6643 86.228 18.2384 86.0581 17.8429C85.8882 17.4473 85.6395 17.0904 85.3272 16.7938C85.0149 16.4971 84.6455 16.267 84.2414 16.1174C83.8373 15.9678 83.407 15.9017 82.9766 15.9233V15.9228ZM63.0395 24.977C62.7739 24.9694 62.5125 24.9089 62.2706 24.799C62.0287 24.6891 61.8113 24.5322 61.6309 24.3373C61.4506 24.1424 61.311 23.9135 61.2204 23.664C61.1298 23.4145 61.09 23.1495 61.1033 22.8845C61.0887 22.6179 61.1274 22.351 61.2172 22.0996C61.307 21.8481 61.4462 21.617 61.6264 21.4198C61.8067 21.2227 62.0245 21.0634 62.2671 20.9512C62.5098 20.8391 62.7723 20.7764 63.0395 20.7668C63.3023 20.7795 63.5598 20.845 63.7967 20.9592C64.0336 21.0735 64.245 21.2342 64.4184 21.4319C64.5918 21.6295 64.7235 21.8599 64.8058 22.1095C64.8881 22.3591 64.9192 22.6226 64.8973 22.8845C64.9177 23.1447 64.8853 23.4064 64.8022 23.6539C64.7191 23.9013 64.5868 24.1295 64.4134 24.3249C64.24 24.5202 64.029 24.6786 63.7929 24.7906C63.5569 24.9027 63.3006 24.9661 63.0395 24.977ZM64.792 20.177H64.74C64.5077 19.9249 64.2242 19.7252 63.9085 19.5913C63.5927 19.4574 63.252 19.3923 62.909 19.4005C62.0122 19.4386 61.1648 19.8212 60.5438 20.4684C59.9227 21.1156 59.576 21.9774 59.576 22.8739C59.576 23.7704 59.9227 24.6322 60.5438 25.2794C61.1648 25.9266 62.0122 26.3092 62.909 26.3473C63.2533 26.3563 63.5953 26.2904 63.9115 26.1541C64.2277 26.0179 64.5104 25.8145 64.74 25.5582H64.7915V26.0582C64.7915 27.3868 64.0803 28.0976 62.9336 28.0976C62.5518 28.0882 62.1814 27.9657 61.8696 27.7455C61.5577 27.5253 61.3184 27.2174 61.1822 26.861L59.852 27.413C60.1025 28.023 60.5297 28.5443 61.0789 28.9101C61.6281 29.2759 62.2741 29.4695 62.9342 29.4662C64.7268 29.4662 66.2413 28.4136 66.2413 25.8473V19.609H64.7915L64.792 20.177ZM67.2952 26.137H68.8235V15.925H67.2952V26.137ZM71.0767 22.7656C71.0603 22.5128 71.0946 22.2593 71.1775 22.0199C71.2604 21.7804 71.3903 21.5599 71.5595 21.3713C71.7288 21.1826 71.934 21.0295 72.1633 20.921C72.3925 20.8125 72.6411 20.7507 72.8945 20.7393C73.1585 20.7219 73.4218 20.7826 73.6515 20.9138C73.8812 21.045 74.067 21.2409 74.1858 21.477L71.0767 22.7656ZM75.8194 21.6085C75.6106 20.9795 75.2131 20.43 74.6808 20.0345C74.1485 19.639 73.5073 19.4166 72.8441 19.3976C72.3972 19.4003 71.9555 19.4935 71.5457 19.6715C71.136 19.8496 70.7666 20.1087 70.4599 20.4334C70.1532 20.758 69.9157 21.1414 69.7616 21.5603C69.6075 21.9793 69.54 22.4251 69.5633 22.8708C69.5532 23.3275 69.6354 23.7815 69.8049 24.2058C69.9745 24.63 70.2279 25.0158 70.5502 25.34C70.8724 25.6642 71.2568 25.9202 71.6803 26.0927C72.1038 26.2652 72.5578 26.3506 73.0152 26.3439C73.5882 26.3471 74.153 26.2082 74.659 25.9395C75.1649 25.6708 75.5961 25.2808 75.9138 24.8045L74.7282 24.0153C74.5506 24.3101 74.2993 24.5536 73.999 24.722C73.6986 24.8904 73.3596 24.9779 73.0152 24.9759C72.6609 24.9895 72.3106 24.8964 72.01 24.7087C71.7093 24.521 71.472 24.2474 71.329 23.9233L75.9796 22.0028L75.8194 21.6085ZM38.7688 20.4656V21.9388H42.2997C42.2495 22.6297 41.9673 23.2835 41.4986 23.7942C41.1448 24.1543 40.7193 24.4364 40.2496 24.6222C39.7799 24.8081 39.2765 24.8935 38.7717 24.873C37.7387 24.8606 36.7522 24.442 36.0261 23.7081C35.3001 22.9741 34.8929 21.9839 34.8929 20.9522C34.8929 19.9204 35.3001 18.9303 36.0261 18.1963C36.7522 17.4624 37.7387 17.0438 38.7717 17.0313C39.7631 17.0185 40.7196 17.3967 41.4334 18.0839L42.4736 17.0445C41.9866 16.5632 41.4084 16.1839 40.7727 15.9288C40.137 15.6736 39.4567 15.5478 38.7717 15.5588C38.0558 15.5484 37.3449 15.6802 36.6805 15.9466C36.016 16.213 35.4113 16.6087 34.9013 17.1106C34.3914 17.6126 33.9864 18.2108 33.71 18.8704C33.4336 19.53 33.2913 20.238 33.2913 20.953C33.2913 21.6681 33.4336 22.3761 33.71 23.0357C33.9864 23.6953 34.3914 24.2935 34.9013 24.7954C35.4113 25.2974 36.016 25.6931 36.6805 25.9595C37.3449 26.2259 38.0558 26.3577 38.7717 26.3473C39.4705 26.3753 40.1673 26.2547 40.8159 25.9935C41.4645 25.7324 42.0502 25.3366 42.5342 24.8325C43.3948 23.8942 43.8536 22.6568 43.8125 21.385C43.8155 21.0762 43.7888 20.7677 43.7329 20.4639L38.7688 20.4656ZM47.8285 24.9799C47.5602 24.9737 47.2958 24.9139 47.051 24.804C46.8062 24.6942 46.5859 24.5366 46.403 24.3404C46.2201 24.1442 46.0784 23.9135 45.9862 23.6618C45.8939 23.4101 45.8531 23.1425 45.866 22.8748C45.8464 22.6054 45.8827 22.335 45.9724 22.0802C46.0622 21.8255 46.2036 21.592 46.3877 21.3943C46.5719 21.1966 46.7948 21.0389 47.0427 20.931C47.2906 20.8232 47.5581 20.7675 47.8285 20.7675C48.0989 20.7675 48.3664 20.8232 48.6142 20.931C48.8621 21.0389 49.0851 21.1966 49.2693 21.3943C49.4534 21.592 49.5948 21.8255 49.6845 22.0802C49.7743 22.335 49.8106 22.6054 49.791 22.8748C49.8035 23.1423 49.7623 23.4096 49.6699 23.661C49.5774 23.9124 49.4356 24.1429 49.2527 24.3387C49.0698 24.5346 48.8495 24.692 48.6049 24.8016C48.3602 24.9112 48.096 24.9709 47.8279 24.977L47.8285 24.9799ZM47.8285 19.401C47.1412 19.4035 46.4701 19.6093 45.8999 19.9925C45.3296 20.3756 44.8859 20.9189 44.6246 21.5538C44.3633 22.1886 44.2962 22.8865 44.4318 23.5594C44.5674 24.2323 44.8996 24.85 45.3865 25.3345C45.8733 25.819 46.493 26.1485 47.1672 26.2815C47.8415 26.4145 48.5401 26.345 49.1748 26.0817C49.8095 25.8185 50.3519 25.3733 50.7335 24.8025C51.115 24.2316 51.3187 23.5606 51.3187 22.8742C51.3258 22.4149 51.2403 21.9588 51.0673 21.5332C50.8943 21.1076 50.6373 20.7211 50.3115 20.3967C49.9858 20.0724 49.5981 19.8168 49.1714 19.6453C48.7447 19.4737 48.2878 19.3897 47.8279 19.3982L47.8285 19.401ZM55.444 24.9799C55.1757 24.9736 54.9114 24.9137 54.6666 24.8039C54.4219 24.694 54.2016 24.5364 54.0187 24.3402C53.8358 24.1441 53.6941 23.9134 53.6018 23.6617C53.5096 23.41 53.4687 23.1425 53.4815 22.8748C53.4625 22.6057 53.4992 22.3357 53.5892 22.0814C53.6793 21.8271 53.8208 21.5941 54.0049 21.3968C54.189 21.1995 54.4118 21.0422 54.6594 20.9346C54.9071 20.8271 55.1742 20.7715 55.4443 20.7715C55.7143 20.7715 55.9815 20.8271 56.2291 20.9346C56.4768 21.0422 56.6996 21.1995 56.8837 21.3968C57.0678 21.5941 57.2093 21.8271 57.2994 22.0814C57.3894 22.3357 57.4261 22.6057 57.4071 22.8748C57.4195 23.1423 57.3783 23.4097 57.2858 23.6611C57.1933 23.9125 57.0514 24.1429 56.8684 24.3388C56.6855 24.5346 56.4652 24.692 56.2204 24.8016C55.9757 24.9112 55.7116 24.9709 55.4434 24.977L55.444 24.9799ZM55.444 19.401C54.7567 19.4035 54.0856 19.6093 53.5154 19.9925C52.9451 20.3756 52.5014 20.9189 52.2401 21.5538C51.9788 22.1886 51.9117 22.8865 52.0473 23.5594C52.1829 24.2323 52.5151 24.85 53.002 25.3345C53.4888 25.819 54.1085 26.1485 54.7828 26.2815C55.457 26.4145 56.1556 26.345 56.7903 26.0817C57.425 25.8185 57.9674 25.3733 58.349 24.8025C58.7306 24.2316 58.9342 23.5606 58.9342 22.8742C58.9413 22.4149 58.8559 21.9588 58.6828 21.5332C58.5098 21.1076 58.2528 20.7211 57.927 20.3967C57.6013 20.0724 57.2136 19.8168 56.7869 19.6453C56.3602 19.4737 55.9033 19.3897 55.4434 19.3982L55.444 19.401Z" fill="white"/>
<path fill-rule="evenodd" clip-rule="evenodd" d="M8.32108 28.0863L8.26043 28.0291C7.99216 27.7089 7.85664 27.2984 7.88166 26.8817V9.05769C7.86597 8.83708 7.89688 8.61565 7.97238 8.40774C8.04788 8.19984 8.16629 8.0101 8.31994 7.85083L18.4518 17.968L8.32108 28.0863ZM7.88223 8.93254C7.88223 8.8874 7.88223 8.8434 7.88566 8.80112C7.88395 8.8434 7.88223 8.8874 7.88223 8.93254Z" fill="#00A0FF"/>
<path fill-rule="evenodd" clip-rule="evenodd" d="M21.8291 21.4622L21.9058 21.4182L25.907 19.1479C26.2345 18.9818 26.5013 18.7169 26.6697 18.3908C26.5012 18.7169 26.2344 18.9819 25.907 19.1485L21.9058 21.4188L21.8291 21.4622ZM21.8291 21.3422L18.4534 17.9708L21.8291 14.5994L25.9064 16.9131C26.1223 17.0106 26.3123 17.1572 26.4613 17.3411C26.6103 17.5251 26.7142 17.7413 26.7646 17.9725C26.7138 18.2034 26.6098 18.4193 26.4608 18.603C26.3118 18.7867 26.122 18.9332 25.9064 19.0308L21.8291 21.3422Z" fill="#FFCD00"/>
<path fill-rule="evenodd" clip-rule="evenodd" d="M9.04369 28.4715C8.77815 28.4771 8.52029 28.3824 8.32162 28.2064C8.5202 28.3831 8.77836 28.4782 9.04426 28.4727C9.06886 28.4727 9.09404 28.4727 9.11921 28.4727C9.09404 28.4719 9.06886 28.4715 9.04369 28.4715ZM9.04369 28.3515C8.77786 28.3578 8.51956 28.2631 8.32104 28.0864L18.4524 17.9675L21.8281 21.339L9.9603 28.0778C9.68371 28.2465 9.36814 28.3408 9.04426 28.3515H9.04369Z" fill="#FC3846"/>
<path fill-rule="evenodd" clip-rule="evenodd" d="M18.4516 17.9687L8.32031 7.85039C8.51895 7.6743 8.77684 7.5796 9.04238 7.58525C9.36622 7.59666 9.68159 7.69155 9.95785 7.86068L21.8291 14.5955L18.4516 17.9687ZM21.9047 14.5201L9.95956 7.74125C9.6833 7.57212 9.36793 7.47723 9.0441 7.46582C9.3678 7.47707 9.68312 7.57154 9.95956 7.74011L21.9052 14.519L21.9047 14.5201Z" fill="#21B971"/>
<path fill-rule="evenodd" clip-rule="evenodd" d="M9.11914 28.4685C9.4164 28.443 9.70389 28.35 9.95965 28.1965L21.8298 21.4617L9.95965 28.1965C9.70422 28.3507 9.41656 28.4438 9.11914 28.4685Z" fill="black"/>
<path fill-rule="evenodd" clip-rule="evenodd" d="M21.8281 21.4605L21.9053 21.4165L21.8281 21.4605Z" fill="white"/>
<path fill-rule="evenodd" clip-rule="evenodd" d="M9.04199 28.4715C8.77609 28.477 8.51793 28.3819 8.31935 28.2052L8.26614 28.1538L8.26099 28.1487L8.32164 28.0875C8.51966 28.2634 8.77703 28.358 9.04199 28.3521C9.36567 28.3412 9.68104 28.2469 9.95745 28.0784L21.8293 21.3418L21.9054 21.4178L21.8287 21.4618L9.95745 28.1967C9.70169 28.3501 9.41421 28.4431 9.11694 28.4687C9.09406 28.4704 9.06888 28.4715 9.04199 28.4715Z" fill="white"/>
<path fill-rule="evenodd" clip-rule="evenodd" d="M8.26044 28.1469C7.99216 27.8268 7.85665 27.4163 7.88166 26.9995C7.85635 27.4163 7.9919 27.8269 8.26044 28.1469Z" fill="black"/>
<path fill-rule="evenodd" clip-rule="evenodd" d="M8.26099 28.1492L8.32206 28.0886L8.26099 28.1492Z" fill="white"/>
<path fill-rule="evenodd" clip-rule="evenodd" d="M26.6692 18.3903C26.7314 18.258 26.7638 18.114 26.7642 17.968C26.7637 18.1139 26.7313 18.258 26.6692 18.3903Z" fill="black"/>
<path fill-rule="evenodd" clip-rule="evenodd" d="M21.9054 21.4177L21.8293 21.3417L25.9066 19.028C26.1222 18.9301 26.3119 18.7833 26.4607 18.5993C26.6095 18.4152 26.7132 18.1991 26.7637 17.968C26.7632 18.1133 26.7312 18.2568 26.6699 18.3886C26.5016 18.7147 26.2347 18.9796 25.9072 19.1457L21.9054 21.4177Z" fill="white"/>
<path d="M26.7647 17.9681C26.7403 17.713 26.6478 17.469 26.4968 17.2618C26.3459 17.0545 26.142 16.8915 25.9064 16.7898L21.9053 14.5195L25.9064 16.791C26.1417 16.8927 26.3455 17.0555 26.4964 17.2626C26.6473 17.4696 26.74 17.7132 26.7647 17.9681Z" fill="#404040"/>
<path fill-rule="evenodd" clip-rule="evenodd" d="M26.7636 17.9687C26.7132 17.7375 26.6093 17.5213 26.4603 17.3373C26.3113 17.1534 26.1212 17.0068 25.9054 16.9092L21.8281 14.5955L21.9042 14.5195L25.9054 16.7898C26.141 16.8916 26.3449 17.0547 26.4959 17.262C26.6469 17.4694 26.7393 17.7134 26.7636 17.9687Z" fill="white"/>
<path d="M7.88623 8.79199C7.93372 7.95314 8.38974 7.46914 9.03571 7.46571C8.77265 7.46154 8.51761 7.55617 8.32108 7.73085C8.30162 7.74856 8.2816 7.76742 8.26386 7.78799C8.023 8.06749 7.88919 8.42324 7.88623 8.79199Z" fill="#404040"/>
<path fill-rule="evenodd" clip-rule="evenodd" d="M7.88208 9.05713V8.93313C7.88208 8.88799 7.88208 8.84399 7.88551 8.8017V8.79599C7.88808 8.42819 8.02083 8.07315 8.26028 7.7937L8.3175 7.85427C8.16489 8.01332 8.0473 8.20251 7.97231 8.40968C7.89732 8.61684 7.86658 8.83739 7.88208 9.05713Z" fill="white"/>
<path fill-rule="evenodd" clip-rule="evenodd" d="M21.8293 14.5954L9.95745 7.86056C9.68119 7.69143 9.36582 7.59654 9.04198 7.58513C8.77645 7.57954 8.51858 7.67423 8.31991 7.85027L8.2627 7.7897C8.28158 7.77027 8.30103 7.75142 8.31991 7.73256C8.51645 7.55788 8.77149 7.46325 9.03455 7.46742H9.04198C9.36582 7.47883 9.68119 7.57371 9.95745 7.74285L21.9054 14.5194L21.8293 14.5954Z" fill="white"/>
</g>
<defs>
<clipPath id="clip0_16836_5674">
<rect width="111" height="36" fill="white"/>
</clipPath>
</defs>
</svg>
