<svg width="20" height="16" viewBox="0 0 20 16" fill="none" xmlns="http://www.w3.org/2000/svg">
<path d="M0.833333 2.37129H19.1667C19.3877 2.37129 19.5996 2.27352 19.7559 2.09949C19.9122 1.92547 20 1.68944 20 1.44333C20 1.19722 19.9122 0.961197 19.7559 0.787172C19.5996 0.613147 19.3877 0.515381 19.1667 0.515381H0.833333C0.61232 0.515381 0.400358 0.613147 0.244078 0.787172C0.0877974 0.961197 0 1.19722 0 1.44333C0 1.68944 0.0877974 1.92547 0.244078 2.09949C0.400358 2.27352 0.61232 2.37129 0.833333 2.37129Z" fill="#343A40"/>
<path d="M19.1667 7.01123H0.833333C0.61232 7.01123 0.400358 7.109 0.244078 7.28302C0.0877974 7.45705 0 7.69307 0 7.93918C0 8.18529 0.0877974 8.42132 0.244078 8.59534C0.400358 8.76937 0.61232 8.86714 0.833333 8.86714H19.1667C19.3877 8.86714 19.5996 8.76937 19.7559 8.59534C19.9122 8.42132 20 8.18529 20 7.93918C20 7.69307 19.9122 7.45705 19.7559 7.28302C19.5996 7.109 19.3877 7.01123 19.1667 7.01123Z" fill="#343A40"/>
<path d="M19.1667 13.5068H0.833333C0.61232 13.5068 0.400358 13.6046 0.244078 13.7786C0.0877974 13.9527 0 14.1887 0 14.4348C0 14.6809 0.0877974 14.9169 0.244078 15.091C0.400358 15.265 0.61232 15.3628 0.833333 15.3628H19.1667C19.3877 15.3628 19.5996 15.265 19.7559 15.091C19.9122 14.9169 20 14.6809 20 14.4348C20 14.1887 19.9122 13.9527 19.7559 13.7786C19.5996 13.6046 19.3877 13.5068 19.1667 13.5068Z" fill="#343A40"/>
</svg>
