<svg width="24" height="18" viewBox="0 0 24 18" fill="none" xmlns="http://www.w3.org/2000/svg">
<path d="M1 2.22709H23C23.2652 2.22709 23.5196 2.10977 23.7071 1.90094C23.8946 1.69211 24 1.40887 24 1.11354C24 0.818213 23.8946 0.534979 23.7071 0.326149C23.5196 0.11732 23.2652 0 23 0H1C0.734784 0 0.48043 0.11732 0.292893 0.326149C0.105357 0.534979 0 0.818213 0 1.11354C0 1.40887 0.105357 1.69211 0.292893 1.90094C0.48043 2.10977 0.734784 2.22709 1 2.22709Z" fill="white"/>
<path d="M23 7.79492H1C0.734784 7.79492 0.48043 7.91224 0.292893 8.12107C0.105357 8.3299 0 8.61313 0 8.90846C0 9.20379 0.105357 9.48703 0.292893 9.69586C0.48043 9.90469 0.734784 10.022 1 10.022H23C23.2652 10.022 23.5196 9.90469 23.7071 9.69586C23.8946 9.48703 24 9.20379 24 8.90846C24 8.61313 23.8946 8.3299 23.7071 8.12107C23.5196 7.91224 23.2652 7.79492 23 7.79492Z" fill="white"/>
<path d="M23 15.5896H1C0.734784 15.5896 0.48043 15.7069 0.292893 15.9158C0.105357 16.1246 0 16.4078 0 16.7032C0 16.9985 0.105357 17.2817 0.292893 17.4906C0.48043 17.6994 0.734784 17.8167 1 17.8167H23C23.2652 17.8167 23.5196 17.6994 23.7071 17.4906C23.8946 17.2817 24 16.9985 24 16.7032C24 16.4078 23.8946 16.1246 23.7071 15.9158C23.5196 15.7069 23.2652 15.5896 23 15.5896Z" fill="white"/>
</svg>
