<svg width="16" height="16" viewBox="0 0 16 16" fill="none" xmlns="http://www.w3.org/2000/svg">
<g clip-path="url(#clip0_16038_103630)">
<path d="M7.99968 4C7.47226 4 6.95669 4.1564 6.51816 4.44941C6.07962 4.74243 5.73783 5.15891 5.536 5.64618C5.33416 6.13345 5.28135 6.66962 5.38425 7.18691C5.48714 7.70419 5.74112 8.17935 6.11406 8.55229C6.487 8.92523 6.96215 9.1792 7.47943 9.28209C7.99672 9.38499 8.5329 9.33218 9.02017 9.13035C9.50743 8.92851 9.92391 8.58672 10.2169 8.14819C10.5099 7.70966 10.6663 7.19408 10.6663 6.66667C10.6663 5.95942 10.3854 5.28115 9.88529 4.78105C9.3852 4.28095 8.70692 4 7.99968 4ZM7.99968 8C7.73597 8 7.47818 7.9218 7.25892 7.77529C7.03965 7.62878 6.86875 7.42055 6.76784 7.17691C6.66692 6.93328 6.64052 6.66519 6.69196 6.40655C6.74341 6.14791 6.8704 5.91033 7.05687 5.72386C7.24334 5.53739 7.48091 5.4104 7.73956 5.35895C7.9982 5.30751 8.26629 5.33391 8.50992 5.43483C8.75356 5.53574 8.96179 5.70664 9.1083 5.92591C9.25481 6.14517 9.33301 6.40296 9.33301 6.66667C9.33301 7.02029 9.19253 7.35943 8.94248 7.60948C8.69244 7.85952 8.3533 8 7.99968 8Z" fill="#616971"/>
<path d="M8.00021 16.0001C7.43884 16.003 6.88495 15.8713 6.38492 15.6161C5.88489 15.361 5.45327 14.9897 5.12621 14.5334C2.58554 11.0288 1.29688 8.39411 1.29688 6.70211C1.29688 4.92428 2.00312 3.21926 3.26024 1.96214C4.51735 0.705021 6.22237 -0.0012207 8.00021 -0.0012207C9.77804 -0.0012207 11.4831 0.705021 12.7402 1.96214C13.9973 3.21926 14.7035 4.92428 14.7035 6.70211C14.7035 8.39411 13.4149 11.0288 10.8742 14.5334C10.5471 14.9897 10.1155 15.361 9.6155 15.6161C9.11547 15.8713 8.56158 16.003 8.00021 16.0001ZM8.00021 1.45411C6.60849 1.4557 5.27422 2.00926 4.29012 2.99336C3.30603 3.97746 2.75246 5.31172 2.75087 6.70345C2.75087 8.04345 4.01287 10.5214 6.30354 13.6808C6.498 13.9486 6.75312 14.1666 7.04802 14.317C7.34291 14.4673 7.66921 14.5456 8.00021 14.5456C8.33121 14.5456 8.6575 14.4673 8.9524 14.317C9.24729 14.1666 9.50241 13.9486 9.69687 13.6808C11.9875 10.5214 13.2495 8.04345 13.2495 6.70345C13.248 5.31172 12.6944 3.97746 11.7103 2.99336C10.7262 2.00926 9.39193 1.4557 8.00021 1.45411Z" fill="#616971"/>
</g>
<defs>
<clipPath id="clip0_16038_103630">
<rect width="16" height="16" fill="white"/>
</clipPath>
</defs>
</svg>
