<svg width="46" height="46" viewBox="0 0 46 46" fill="none" xmlns="http://www.w3.org/2000/svg">
<g clip-path="url(#clip0_317_1469)">
<path d="M18.4776 22.3422C15.6084 23.469 12.4247 23.7157 9.41756 23.0889C11.1961 24.7633 12.9293 26.483 14.6196 28.2457C15.1423 28.791 14.3141 29.6237 13.7892 29.0761C11.531 26.7229 9.19355 24.4443 6.78147 22.2494C6.36965 21.8738 6.79505 21.0547 7.34489 21.2651C10.8363 22.5979 14.7011 22.5752 18.1789 21.2063C18.8826 20.928 19.1768 22.0684 18.4776 22.3422Z" fill="#E8952F"/>
<path d="M38.1499 24.1797C32.441 26.9199 25.9831 27.6033 19.7447 26.809C17.9753 26.5828 16.2262 26.2456 14.4997 25.7999C13.7666 25.6098 14.0652 24.4739 14.7984 24.664C20.6385 26.1687 26.8769 26.4787 32.7419 24.931C34.4028 24.492 36.0206 23.9014 37.5706 23.157C38.2449 22.8311 38.8309 23.8516 38.1499 24.1797V24.1797Z" fill="#E8952F"/>
</g>
<defs>
<clipPath id="clip0_317_1469">
<rect width="32" height="32" fill="white" transform="matrix(0.707107 -0.707107 -0.707107 -0.707107 22.6274 45.2549)"/>
</clipPath>
</defs>
</svg>
