<svg width="16" height="16" viewBox="0 0 16 16" fill="none" xmlns="http://www.w3.org/2000/svg">
<g clip-path="url(#clip0_16038_103635)">
<path d="M16 10.6667L16 10.58C15.9972 10.2816 15.8953 9.99267 15.7105 9.75846C15.5256 9.52425 15.2682 9.35807 14.9787 9.286C14.6968 9.20882 14.4481 9.04115 14.2708 8.80879C14.0935 8.57644 13.9974 8.29227 13.9974 8C13.9974 7.70773 14.0935 7.42356 14.2708 7.19121C14.4481 6.95885 14.6968 6.79118 14.9787 6.714C15.2682 6.64193 15.5256 6.47575 15.7105 6.24154C15.8953 6.00733 15.9972 5.71836 16 5.42L16 5.33333C15.9989 4.4496 15.6474 3.60237 15.0225 2.97748C14.3976 2.35259 13.5504 2.00106 12.6667 2L2 2C1.46957 2 0.960858 2.21071 0.585786 2.58579C0.210713 2.96086 -6.42368e-08 3.46957 -8.74228e-08 4L-1.49493e-07 5.42C0.00283416 5.71836 0.104675 6.00733 0.289532 6.24154C0.47439 6.47575 0.731794 6.64193 1.02133 6.714C1.30322 6.79118 1.55195 6.95885 1.72924 7.1912C1.90652 7.42356 2.00256 7.70773 2.00256 8C2.00256 8.29227 1.90652 8.57644 1.72924 8.80879C1.55195 9.04115 1.30322 9.20882 1.02133 9.286C0.731794 9.35807 0.47439 9.52425 0.289532 9.75846C0.104675 9.99267 0.00283396 10.2816 -3.75044e-07 10.58L-4.37114e-07 12C-4.603e-07 12.5304 0.210713 13.0391 0.585785 13.4142C0.960858 13.7893 1.46957 14 2 14L12.6667 14C13.5504 13.9989 14.3976 13.6474 15.0225 13.0225C15.6474 12.3976 15.9989 11.5504 16 10.6667H16ZM1.33333 12L1.37533 10.5713C1.94105 10.4148 2.4393 10.0759 2.79282 9.60728C3.14633 9.13868 3.33535 8.56653 3.33056 7.97955C3.32578 7.39258 3.12745 6.82359 2.76635 6.36081C2.40524 5.89804 1.90153 5.56734 1.33333 5.42L1.33333 4C1.33333 3.82319 1.40357 3.65362 1.52859 3.5286C1.65362 3.40357 1.82319 3.33333 2 3.33333L4.66667 3.33333L4.66667 4.66667C4.66667 4.84348 4.7369 5.01305 4.86193 5.13807C4.98695 5.26309 5.15652 5.33333 5.33333 5.33333C5.51014 5.33333 5.67971 5.26309 5.80474 5.13807C5.92976 5.01305 6 4.84348 6 4.66667L6 3.33333L12.6667 3.33333C13.1971 3.33333 13.7058 3.54405 14.0809 3.91912C14.456 4.29419 14.6667 4.8029 14.6667 5.33333L14.6247 5.42867C14.0624 5.58482 13.5666 5.92066 13.2131 6.38494C12.8596 6.84923 12.6677 7.41644 12.6667 8C12.6717 8.59144 12.8698 9.16504 13.2308 9.63353C13.5919 10.102 14.096 10.4398 14.6667 10.5953L14.6667 10.6667C14.6667 11.1971 14.456 11.7058 14.0809 12.0809C13.7058 12.456 13.1971 12.6667 12.6667 12.6667L6 12.6667L6 11.3333C6 11.1565 5.92976 10.987 5.80474 10.8619C5.67971 10.7369 5.51014 10.6667 5.33333 10.6667C5.15652 10.6667 4.98695 10.7369 4.86193 10.8619C4.7369 10.987 4.66667 11.1565 4.66667 11.3333L4.66667 12.6667L2 12.6667C1.82319 12.6667 1.65362 12.5964 1.52859 12.4714C1.40357 12.3464 1.33333 12.1768 1.33333 12Z" fill="#616971"/>
<path d="M6 8.66674L6 7.33341C6 7.1566 5.92976 6.98703 5.80474 6.86201C5.67971 6.73699 5.51014 6.66675 5.33333 6.66675C5.15652 6.66675 4.98695 6.73699 4.86192 6.86201C4.7369 6.98703 4.66666 7.1566 4.66666 7.33341L4.66666 8.66674C4.66666 8.84355 4.7369 9.01312 4.86192 9.13815C4.98695 9.26317 5.15652 9.33341 5.33333 9.33341C5.51014 9.33341 5.67971 9.26317 5.80474 9.13815C5.92976 9.01312 6 8.84355 6 8.66674Z" fill="#374957"/>
</g>
<defs>
<clipPath id="clip0_16038_103635">
<rect width="16" height="16" fill="white" transform="translate(16) rotate(90)"/>
</clipPath>
</defs>
</svg>
